<?xml version="1.0" encoding="utf-8"?>
<!-- Generator: Adobe Illustrator 23.0.4, SVG Export Plug-In . SVG Version: 6.00 Build 0)  -->
<svg version="1.1" id="Ebene_1" xmlns="http://www.w3.org/2000/svg" xmlns:xlink="http://www.w3.org/1999/xlink" x="0px" y="0px"
	 viewBox="0 0 1159.23 442.98" style="enable-background:new 0 0 1159.23 442.98;" xml:space="preserve">
<style type="text/css">
	.st0{fill:#006AB3;}
</style>
<g>
	<path class="st0" d="M629.89,162.94v75.45c0,44.98-33.69,75.45-75.26,75.45c-41.56,0-75.26-30.48-75.26-75.45
		c0-6.49,0-75.45,0-75.45h38.14c0,13.71,0,69.37,0,72.17c0,23.32,16.62,39.26,37.12,39.26s37.12-15.94,37.12-39.26v-72.17H629.89z"
		/>
	<path class="st0" d="M172.04,237.78c0-23.31,16.62-39.26,37.12-39.26s37.12,15.94,37.12,39.26v72.17h38.14V234.5
		c0-44.98-33.69-75.45-75.26-75.45c-13.51,0-26.16,3.27-37.12,9.16v-53.5H133.9v195.24h38.14l0,0"/>
	<path class="st0" d="M345.41,237.78c0-23.31,16.62-39.26,37.12-39.26s37.12,15.94,37.12,39.26v72.17h38.14V234.5
		c0-44.98-33.69-75.45-75.26-75.45c-13.51,0-26.16,3.27-37.12,9.16v-53.5h-38.14v195.24h38.14l0,0"/>
	<path d="M928.13,275.36c-0.46-0.28-1.19-0.54-2.17-0.77c-0.98-0.23-2.05-0.34-3.19-0.34c-1.57,0-2.98,0.28-4.23,0.84
		s-2.32,1.53-3.22,2.9c-0.68,1.02-1.09,2.14-1.23,3.35c-0.14,1.21-0.21,1.64-0.21,2.7v2.8h-4.23v2.64h4.23v20.53h4.02v-20.53h6.48
		v-2.64h-6.48v-2.64c0-0.88,0.04-1.1,0.11-2.09c0.07-0.98,0.25-1.87,0.53-2.66s0.71-1.45,1.26-1.98s1.33-0.79,2.33-0.79
		c1.04,0,1.93,0.18,2.68,0.53s1.38,0.72,1.87,1.11L928.13,275.36z M890.65,310.01h3.96v-11.14c0-0.77,0.03-1.55,0.08-2.32
		c0.05-0.77,0.17-1.51,0.35-2.22c0.39-1.44,0.97-2.65,1.74-3.62s1.63-1.45,2.6-1.45c1.61,0,2.46,0.86,2.57,2.59l3.48-1.21
		c-0.04-0.78-0.2-1.44-0.48-2.01c-0.29-0.56-0.64-1.01-1.07-1.35c-0.43-0.33-0.9-0.58-1.42-0.74c-0.52-0.16-1.01-0.24-1.47-0.24
		c-1.39,0-2.61,0.39-3.64,1.16c-1.04,0.77-1.91,1.81-2.63,3.11l-0.54-4.01l-4.02,0.37c0.04,0.18,0.08,0.48,0.13,0.92
		s0.11,0.94,0.16,1.51c0.05,0.56,0.1,1.14,0.13,1.74c0.04,0.6,0.06,1.16,0.06,1.69v17.22H890.65z M877.23,305.05
		c-1.23,1.72-2.96,2.59-5.17,2.59c-2.22,0-3.94-0.86-5.17-2.59c-1.23-1.72-1.85-4.01-1.85-6.86c0-2.82,0.61-5.07,1.82-6.76
		s2.95-2.53,5.2-2.53s3.98,0.84,5.2,2.53s1.82,3.94,1.82,6.76C879.07,301.04,878.46,303.33,877.23,305.05 M882.82,293.31
		c-0.5-1.5-1.23-2.77-2.2-3.83c-0.96-1.06-2.17-1.87-3.62-2.45c-1.45-0.58-3.1-0.87-4.96-0.87c-1.86,0-3.5,0.29-4.93,0.87
		s-2.63,1.4-3.62,2.45c-0.98,1.06-1.72,2.33-2.22,3.83s-0.75,3.16-0.75,4.99c0,1.9,0.29,3.62,0.88,5.15s1.4,2.83,2.44,3.91
		c1.04,1.07,2.26,1.9,3.67,2.48c1.41,0.58,2.92,0.87,4.53,0.87c1.61,0,3.11-0.29,4.53-0.87c1.41-0.58,2.63-1.41,3.67-2.48
		s1.85-2.38,2.44-3.91s0.88-3.24,0.88-5.15C883.57,296.46,883.32,294.8,882.82,293.31 M850.14,310.28l4.02-0.37
		c-0.04-0.18-0.08-0.48-0.13-0.92s-0.11-0.93-0.16-1.48c-0.05-0.54-0.1-1.12-0.13-1.74c-0.04-0.61-0.05-1.19-0.05-1.72v-29.54h-3.86
		v15.65c-0.57-1.09-1.49-2.03-2.76-2.82s-2.76-1.19-4.47-1.19c-1.46,0-2.84,0.26-4.13,0.79c-1.28,0.53-2.41,1.31-3.37,2.35
		s-1.73,2.34-2.3,3.9c-0.57,1.57-0.86,3.37-0.86,5.41c0,1.65,0.2,3.21,0.62,4.67c0.41,1.46,1.04,2.75,1.87,3.85
		c0.84,1.11,1.91,1.98,3.22,2.61c1.3,0.63,2.85,0.95,4.63,0.95c1.14,0,2.13-0.16,2.98-0.47c0.84-0.32,1.55-0.7,2.14-1.16
		s1.06-0.94,1.42-1.45s0.62-0.96,0.8-1.35L850.14,310.28z M849.07,303.1c-0.54,1.27-1.19,2.24-1.96,2.93s-1.57,1.14-2.41,1.37
		c-0.84,0.23-1.54,0.34-2.12,0.34c-1.07,0-2-0.24-2.79-0.71s-1.44-1.13-1.95-1.98c-0.52-0.84-0.9-1.85-1.15-3.01
		s-0.37-2.41-0.37-3.75c0-1.37,0.16-2.63,0.48-3.77c0.32-1.14,0.78-2.12,1.37-2.93c0.59-0.81,1.29-1.43,2.12-1.87
		c0.82-0.44,1.72-0.66,2.68-0.66c0.93,0,1.81,0.17,2.65,0.5s1.57,0.87,2.2,1.61c0.62,0.74,1.12,1.67,1.5,2.8
		c0.38,1.13,0.56,2.48,0.56,4.06C849.87,300.14,849.61,301.83,849.07,303.1 M824.59,274.51h-4.23v35.5h4.23V274.51z M807.16,290.64
		c0.91,1.26,1.37,2.96,1.37,5.07v0.79H796.9c0.14-1.02,0.39-2,0.75-2.93s0.81-1.76,1.37-2.48c0.55-0.72,1.21-1.29,1.98-1.72
		c0.77-0.42,1.63-0.63,2.6-0.63C805.06,288.74,806.24,289.37,807.16,290.64 M812.7,299.14v-2.32c0-1.3-0.15-2.59-0.46-3.88
		c-0.3-1.28-0.81-2.43-1.53-3.43c-0.71-1-1.67-1.81-2.86-2.43c-1.2-0.62-2.71-0.93-4.53-0.93c-1.5,0-2.9,0.3-4.21,0.9
		c-1.3,0.6-2.44,1.43-3.4,2.51c-0.96,1.07-1.72,2.36-2.28,3.85s-0.83,3.16-0.83,4.99c0,4.05,0.95,7.11,2.84,9.18
		c1.89,2.08,4.7,3.11,8.41,3.11c1.93,0,3.62-0.39,5.09-1.16c1.46-0.77,2.84-1.9,4.12-3.38l-1.66-1.69
		c-1.57,1.37-2.92,2.27-4.05,2.69c-1.12,0.42-2.22,0.63-3.29,0.63c-2.36,0-4.13-0.75-5.3-2.24s-1.84-3.64-1.98-6.42h15.92V299.14z
		 M786.05,300.43c-0.45-0.79-1.02-1.47-1.72-2.03c-0.7-0.56-1.46-1-2.28-1.32s-1.63-0.58-2.41-0.79c-1.47-0.39-2.65-0.93-3.56-1.64
		c-0.91-0.7-1.37-1.65-1.37-2.85c0-0.92,0.4-1.68,1.21-2.3c0.8-0.62,1.83-0.93,3.08-0.93c1.32,0,2.35,0.25,3.08,0.74
		c0.73,0.49,1.37,1,1.9,1.53l2.04-2.58c-0.57-0.49-1.4-0.97-2.49-1.43c-1.09-0.46-2.55-0.69-4.37-0.69c-1.11,0-2.16,0.13-3.16,0.4
		c-1,0.26-1.88,0.66-2.65,1.19s-1.38,1.19-1.85,2s-0.7,1.74-0.7,2.8c0,1.23,0.21,2.26,0.64,3.09s0.98,1.52,1.66,2.06
		s1.41,0.97,2.2,1.27c0.79,0.3,1.53,0.55,2.25,0.76c1.5,0.42,2.71,0.94,3.62,1.56s1.37,1.65,1.37,3.09c0,1.23-0.37,2.17-1.1,2.82
		s-1.78,0.98-3.14,0.98c-0.71,0-1.38-0.11-2.01-0.34s-1.21-0.52-1.74-0.87c-0.54-0.35-1.01-0.71-1.42-1.08s-0.74-0.71-0.99-1.03
		l-2.04,3.22c2.25,1.76,4.96,2.64,8.14,2.64c1.18,0,2.29-0.16,3.32-0.47c1.04-0.32,1.93-0.78,2.68-1.4c0.75-0.61,1.35-1.38,1.79-2.3
		c0.45-0.92,0.67-1.97,0.67-3.17C786.72,302.2,786.49,301.22,786.05,300.43 M763.71,300.43c-0.45-0.79-1.02-1.47-1.71-2.03
		c-0.7-0.56-1.46-1-2.28-1.32s-1.62-0.58-2.41-0.79c-1.46-0.39-2.65-0.93-3.56-1.64c-0.91-0.7-1.37-1.65-1.37-2.85
		c0-0.92,0.4-1.68,1.2-2.3s1.83-0.93,3.08-0.93c1.32,0,2.35,0.25,3.08,0.74c0.73,0.49,1.37,1,1.9,1.53l2.04-2.58
		c-0.57-0.49-1.4-0.97-2.49-1.43c-1.09-0.46-2.54-0.69-4.37-0.69c-1.11,0-2.16,0.13-3.16,0.4c-1,0.26-1.88,0.66-2.65,1.19
		s-1.38,1.19-1.85,2c-0.46,0.81-0.7,1.74-0.7,2.8c0,1.23,0.21,2.26,0.64,3.09s0.98,1.52,1.66,2.06s1.41,0.97,2.2,1.27
		c0.79,0.3,1.54,0.55,2.25,0.76c1.5,0.42,2.71,0.94,3.62,1.56s1.37,1.65,1.37,3.09c0,1.23-0.37,2.17-1.1,2.82s-1.78,0.98-3.13,0.98
		c-0.72,0-1.39-0.11-2.01-0.34c-0.63-0.23-1.21-0.52-1.74-0.87c-0.54-0.35-1.01-0.71-1.42-1.08s-0.74-0.71-0.99-1.03l-2.04,3.22
		c2.25,1.76,4.96,2.64,8.14,2.64c1.18,0,2.29-0.16,3.32-0.47c1.04-0.32,1.93-0.78,2.68-1.4c0.75-0.61,1.35-1.38,1.79-2.3
		c0.45-0.92,0.67-1.97,0.67-3.17C764.38,302.2,764.15,301.22,763.71,300.43 M727.25,277.02c-0.46-0.47-1.05-0.71-1.77-0.71
		c-0.68,0-1.26,0.24-1.74,0.71s-0.72,1.03-0.72,1.66s0.24,1.19,0.72,1.66s1.06,0.71,1.74,0.71c0.72,0,1.3-0.24,1.77-0.71
		c0.46-0.48,0.7-1.03,0.7-1.66S727.71,277.49,727.25,277.02 M737.13,277.02c-0.48-0.47-1.06-0.71-1.74-0.71
		c-0.72,0-1.31,0.24-1.77,0.71s-0.7,1.03-0.7,1.66s0.23,1.19,0.7,1.66c0.46,0.47,1.05,0.71,1.77,0.71c0.68,0,1.26-0.24,1.74-0.71
		c0.48-0.48,0.73-1.03,0.73-1.66S737.62,277.49,737.13,277.02 M720.5,286.84v14.57c0,1.23,0.05,2.41,0.16,3.54
		c0.11,1.12,0.43,2.11,0.96,2.96c0.53,0.84,1.35,1.52,2.44,2.03s2.6,0.77,4.53,0.77c1.21,0,2.28-0.19,3.19-0.55
		c0.91-0.37,1.68-0.8,2.31-1.29c0.62-0.49,1.12-0.99,1.47-1.48c0.36-0.49,0.63-0.86,0.8-1.11l0.53,4.01l4.02-0.37
		c-0.04-0.18-0.08-0.48-0.13-0.92s-0.11-0.93-0.16-1.48c-0.05-0.54-0.1-1.12-0.13-1.74c-0.03-0.61-0.05-1.19-0.05-1.72v-17.21h-4.18
		v12.98c0,1.06-0.17,2.06-0.51,3.01s-0.8,1.78-1.39,2.48s-1.29,1.26-2.09,1.66c-0.8,0.4-1.69,0.61-2.65,0.61
		c-1.07,0-1.94-0.13-2.6-0.4c-0.66-0.26-1.16-0.66-1.5-1.19s-0.56-1.18-0.67-1.95c-0.11-0.77-0.16-1.65-0.16-2.64v-14.57H720.5z
		 M707.37,300.19c-0.68,1.83-1.61,3.27-2.78,4.33c-1.18,1.06-2.54,1.79-4.07,2.19c-1.54,0.4-3.16,0.61-4.88,0.61
		c-0.68,0-1.36-0.02-2.04-0.05c-0.68-0.04-1.43-0.11-2.25-0.21l-0.18-28.07c0.61-0.04,1.22-0.05,1.85-0.05h1.79
		c4.68,0,8.08,1.15,10.21,3.46c2.12,2.31,3.37,6.34,3.37,10.84C708.39,296.04,708.05,298.36,707.37,300.19 M711.77,285.31
		c-0.8-2.04-1.96-3.73-3.45-5.07c-1.5-1.34-3.32-2.34-5.47-3.01c-2.14-0.67-4.54-1-7.18-1c-1.11,0-1.98,0.01-2.63,0.03
		c-0.64,0.02-1.23,0.04-1.77,0.05c-0.53,0.02-1.12,0.04-1.77,0.05c-0.64,0.02-1.52,0.05-2.63,0.08l0.18,33.56
		c1.04,0,2.31,0.02,3.83,0.05s3.15,0.05,4.9,0.05c1.79,0,3.7-0.23,5.73-0.69s3.91-1.3,5.62-2.53c1.72-1.23,3.14-2.96,4.29-5.17
		c1.14-2.22,1.71-5.09,1.71-8.6C713.16,290.38,712.58,287.35,711.77,285.31"/>
	<path d="M923.59,249.82c-0.5,0.25-0.95,0.43-1.36,0.55c-0.41,0.12-0.86,0.18-1.36,0.18c-0.28,0-0.62-0.05-1.01-0.16
		s-0.69-0.25-0.91-0.42c-0.5-0.39-0.79-0.86-0.88-1.42s-0.13-1.44-0.13-2.64v-13.72h5.53v-2.64h-5.53v-6.81l-4.04,0.95v5.86h-3.94
		v2.64h3.94v14.09c0,1.19,0.04,2.23,0.13,3.09s0.36,1.59,0.82,2.19c0.5,0.67,1.14,1.14,1.94,1.42s1.64,0.42,2.53,0.42
		c0.92,0,1.84-0.14,2.74-0.42c0.91-0.28,1.68-0.67,2.32-1.16L923.59,249.82z M892.04,219.92c-0.46-0.47-1.05-0.71-1.75-0.71
		c-0.67,0-1.25,0.24-1.73,0.71s-0.72,1.03-0.72,1.66s0.24,1.19,0.72,1.66s1.06,0.71,1.73,0.71c0.71,0,1.29-0.24,1.75-0.71
		s0.69-1.03,0.69-1.66S892.5,220.39,892.04,219.92 M901.86,219.92c-0.48-0.47-1.06-0.71-1.73-0.71c-0.71,0-1.3,0.24-1.76,0.71
		s-0.69,1.03-0.69,1.66s0.23,1.19,0.69,1.66s1.05,0.71,1.76,0.71c0.67,0,1.25-0.24,1.73-0.71s0.72-1.03,0.72-1.66
		S902.34,220.39,901.86,219.92 M899.3,243.72c-0.02,0.69-0.06,1.36-0.13,2.03c-0.11,0.88-0.36,1.63-0.77,2.25
		c-0.41,0.61-0.88,1.11-1.41,1.48c-0.53,0.37-1.08,0.63-1.65,0.79c-0.57,0.16-1.05,0.24-1.44,0.24c-0.53,0-1.05-0.07-1.54-0.21
		c-0.5-0.14-0.93-0.37-1.3-0.69s-0.67-0.73-0.91-1.24c-0.23-0.51-0.34-1.15-0.34-1.93c0-0.77,0.16-1.42,0.48-1.95
		s0.71-0.96,1.17-1.29c0.46-0.33,0.94-0.59,1.44-0.77c0.5-0.18,0.92-0.3,1.28-0.37c0.43-0.11,0.9-0.18,1.41-0.21
		c0.51-0.03,1.01-0.07,1.49-0.11c0.48-0.03,0.92-0.05,1.33-0.05h0.93C899.33,242.36,899.32,243.04,899.3,243.72 M906.78,250.24
		c-0.64,0.18-1.26,0.26-1.86,0.26c-0.5,0-0.9-0.17-1.2-0.5s-0.45-1.03-0.45-2.08v-12.25c0-0.42-0.01-0.86-0.03-1.32
		s-0.08-0.92-0.19-1.37c-0.11-0.46-0.28-0.9-0.53-1.32s-0.58-0.79-1.01-1.11c-0.92-0.7-1.94-1.16-3.06-1.37
		c-1.12-0.21-2.19-0.32-3.22-0.32c-0.96,0-1.91,0.09-2.85,0.26c-0.94,0.18-1.8,0.48-2.58,0.9s-1.45,0.98-1.99,1.66
		c-0.55,0.69-0.92,1.56-1.09,2.61l3.24,1.06c0.11-0.53,0.25-1.02,0.43-1.48c0.18-0.46,0.45-0.87,0.82-1.24
		c0.37-0.37,0.86-0.66,1.46-0.87c0.6-0.21,1.37-0.32,2.29-0.32c0.5,0,0.98,0.05,1.44,0.13c0.46,0.09,0.88,0.24,1.28,0.45
		c0.6,0.32,1.03,0.72,1.28,1.21s0.37,1.2,0.37,2.11v4.01c-1.2,0-2.24,0.02-3.11,0.05c-0.87,0.04-1.71,0.11-2.53,0.21
		c-1.13,0.18-2.18,0.46-3.14,0.84c-0.96,0.39-1.79,0.89-2.5,1.51c-0.71,0.61-1.27,1.34-1.68,2.19s-0.61,1.79-0.61,2.85
		c0,1.06,0.2,1.99,0.59,2.8s0.9,1.48,1.52,2c0.62,0.53,1.32,0.93,2.1,1.19c0.78,0.26,1.58,0.4,2.39,0.4c1.92,0,3.47-0.42,4.66-1.27
		s2.01-1.81,2.47-2.9c0.11,1.06,0.47,1.97,1.09,2.74c0.62,0.77,1.53,1.16,2.74,1.16c0.71,0,1.39-0.07,2.05-0.21s1.12-0.25,1.41-0.32
		L906.78,250.24L906.78,250.24z M879.96,249.82c-0.5,0.25-0.95,0.43-1.36,0.55c-0.41,0.12-0.86,0.18-1.36,0.18
		c-0.28,0-0.62-0.05-1.01-0.16s-0.69-0.25-0.91-0.42c-0.5-0.39-0.79-0.86-0.88-1.42s-0.13-1.44-0.13-2.64v-13.72h5.53v-2.64h-5.53
		v-6.81l-4.04,0.95v5.86h-3.94v2.64h3.94v14.09c0,1.19,0.04,2.23,0.13,3.09s0.36,1.59,0.83,2.19c0.5,0.67,1.14,1.14,1.94,1.42
		s1.64,0.42,2.53,0.42c0.92,0,1.84-0.14,2.74-0.42c0.91-0.28,1.68-0.67,2.32-1.16L879.96,249.82z M859.37,229.55h-4.26v23.17h4.26
		V229.55z M859.16,218.33c-0.53-0.54-1.15-0.82-1.86-0.82c-0.74,0-1.38,0.27-1.92,0.82c-0.53,0.55-0.8,1.17-0.8,1.87
		c0,0.71,0.26,1.32,0.8,1.85c0.53,0.53,1.17,0.79,1.92,0.79c0.71,0,1.33-0.26,1.86-0.79s0.8-1.14,0.8-1.85
		C859.96,219.5,859.69,218.88,859.16,218.33 M846.9,243.14c-0.44-0.79-1.01-1.47-1.7-2.03s-1.45-1-2.26-1.32
		c-0.82-0.32-1.61-0.58-2.39-0.79c-1.45-0.39-2.63-0.93-3.54-1.64c-0.9-0.7-1.36-1.65-1.36-2.85c0-0.91,0.4-1.68,1.2-2.3
		c0.8-0.61,1.82-0.92,3.06-0.92c1.31,0,2.33,0.25,3.06,0.74s1.36,1,1.89,1.53l2.02-2.59c-0.57-0.49-1.39-0.97-2.47-1.42
		c-1.08-0.46-2.53-0.69-4.34-0.69c-1.1,0-2.15,0.13-3.14,0.4c-0.99,0.26-1.87,0.66-2.63,1.19s-1.38,1.2-1.84,2.01
		s-0.69,1.74-0.69,2.8c0,1.23,0.21,2.26,0.64,3.09c0.42,0.83,0.98,1.51,1.65,2.06c0.67,0.55,1.4,0.97,2.18,1.27
		c0.78,0.3,1.52,0.55,2.24,0.77c1.49,0.42,2.69,0.94,3.59,1.56s1.36,1.65,1.36,3.09c0,1.23-0.36,2.17-1.09,2.82
		c-0.73,0.65-1.77,0.98-3.11,0.98c-0.71,0-1.38-0.11-1.99-0.34c-0.62-0.23-1.2-0.52-1.73-0.87c-0.53-0.35-1-0.71-1.41-1.08
		s-0.74-0.71-0.99-1.03l-2.02,3.22c2.23,1.76,4.93,2.64,8.09,2.64c1.17,0,2.27-0.16,3.3-0.48c1.03-0.32,1.92-0.78,2.66-1.4
		c0.75-0.62,1.34-1.38,1.78-2.3s0.66-1.97,0.66-3.17C847.56,244.91,847.34,243.93,846.9,243.14 M812.66,252.72h3.94v-11.14
		c0-0.77,0.03-1.55,0.08-2.32s0.17-1.51,0.35-2.22c0.39-1.44,0.97-2.65,1.73-3.62s1.62-1.45,2.58-1.45c1.59,0,2.45,0.86,2.55,2.58
		l3.46-1.21c-0.04-0.77-0.2-1.44-0.48-2c-0.28-0.56-0.64-1.01-1.06-1.35s-0.9-0.58-1.41-0.74c-0.52-0.16-1-0.24-1.46-0.24
		c-1.38,0-2.59,0.39-3.62,1.16c-1.03,0.77-1.9,1.81-2.61,3.11l-0.53-4.01l-3.99,0.37c0.03,0.18,0.08,0.48,0.13,0.93
		c0.05,0.44,0.11,0.94,0.16,1.5s0.1,1.14,0.13,1.74s0.05,1.16,0.05,1.69V252.72z M799.81,233.35c0.9,1.27,1.36,2.96,1.36,5.07v0.79
		h-11.55c0.14-1.02,0.39-1.99,0.75-2.93c0.35-0.93,0.8-1.76,1.36-2.48c0.55-0.72,1.2-1.29,1.97-1.72c0.76-0.42,1.62-0.63,2.58-0.63
		C797.73,231.45,798.91,232.08,799.81,233.35 M805.32,241.85v-2.32c0-1.3-0.15-2.59-0.45-3.88c-0.3-1.28-0.81-2.43-1.52-3.43
		s-1.66-1.81-2.85-2.43c-1.19-0.61-2.69-0.92-4.5-0.92c-1.49,0-2.88,0.3-4.18,0.9c-1.3,0.6-2.42,1.44-3.38,2.51
		c-0.96,1.07-1.71,2.36-2.26,3.85c-0.55,1.5-0.83,3.16-0.83,4.99c0,4.05,0.94,7.11,2.82,9.19s4.66,3.11,8.35,3.11
		c1.92,0,3.6-0.39,5.05-1.16c1.45-0.78,2.82-1.9,4.1-3.38l-1.65-1.69c-1.56,1.37-2.9,2.27-4.02,2.69s-2.21,0.63-3.27,0.63
		c-2.34,0-4.1-0.75-5.27-2.24c-1.17-1.49-1.83-3.63-1.97-6.41L805.32,241.85L805.32,241.85z M764.3,229.55h-4.57l9.52,23.65h3.35
		l9.74-23.65h-3.83l-6.17,16.26c-0.6,1.62-0.94,2.83-1.01,3.64c-0.07-0.39-0.18-0.9-0.32-1.53s-0.39-1.41-0.74-2.32L764.3,229.55z
		 M753.9,229.55h-4.26v23.17h4.26V229.55z M753.68,218.33c-0.53-0.54-1.15-0.82-1.86-0.82c-0.74,0-1.38,0.27-1.92,0.82
		c-0.53,0.55-0.8,1.17-0.8,1.87c0,0.71,0.27,1.32,0.8,1.85c0.53,0.53,1.17,0.79,1.92,0.79c0.71,0,1.33-0.26,1.86-0.79
		c0.53-0.53,0.8-1.14,0.8-1.85C754.48,219.5,754.21,218.88,753.68,218.33 M741.21,252.72v-14.57c0-1.23-0.05-2.41-0.16-3.54
		c-0.11-1.12-0.43-2.11-0.96-2.96s-1.34-1.52-2.42-2.03c-1.08-0.51-2.58-0.76-4.5-0.76c-1.2,0-2.26,0.18-3.17,0.55
		c-0.9,0.37-1.67,0.8-2.29,1.29c-0.62,0.49-1.12,0.99-1.49,1.48c-0.37,0.49-0.63,0.86-0.77,1.11l-0.53-4.01l-3.99,0.37
		c0.04,0.18,0.08,0.48,0.13,0.93c0.05,0.44,0.11,0.94,0.16,1.5s0.1,1.14,0.13,1.74c0.04,0.6,0.05,1.16,0.05,1.69v17.21h4.15v-12.98
		c0-1.06,0.17-2.06,0.51-3.01s0.8-1.78,1.38-2.48c0.59-0.7,1.28-1.26,2.07-1.66c0.8-0.4,1.68-0.61,2.64-0.61
		c1.06,0,1.92,0.13,2.58,0.4c0.66,0.26,1.15,0.66,1.49,1.19c0.34,0.53,0.56,1.18,0.66,1.95c0.11,0.77,0.16,1.65,0.16,2.64v14.57
		h4.17V252.72z M712.59,219.78h-4.15v20.27c0,2.18-0.22,3.97-0.66,5.36s-1.06,2.49-1.84,3.3s-1.69,1.37-2.74,1.66
		c-1.05,0.3-2.17,0.45-3.38,0.45c-1.24,0-2.38-0.15-3.43-0.45s-1.95-0.85-2.71-1.66s-1.37-1.91-1.81-3.3s-0.66-3.18-0.66-5.36
		v-20.27h-4.31v20.64c0,4.86,1.08,8.31,3.24,10.35c2.16,2.04,5.39,3.06,9.68,3.06s7.49-1.02,9.6-3.06s3.17-5.49,3.17-10.35
		L712.59,219.78L712.59,219.78z"/>
	<path d="M996.79,176.51c0.9,1.26,1.35,2.96,1.35,5.07v0.79h-11.45c0.14-1.02,0.39-2,0.74-2.93s0.8-1.76,1.35-2.48
		c0.54-0.72,1.19-1.29,1.95-1.72c0.76-0.42,1.61-0.63,2.56-0.63C994.73,174.61,995.9,175.25,996.79,176.51 M1002.26,185.01v-2.32
		c0-1.3-0.15-2.59-0.45-3.88s-0.8-2.43-1.51-3.43c-0.7-1-1.65-1.81-2.82-2.43c-1.18-0.61-2.66-0.92-4.46-0.92
		c-1.48,0-2.86,0.3-4.14,0.9c-1.29,0.6-2.4,1.43-3.35,2.51c-0.95,1.07-1.7,2.36-2.24,3.85c-0.55,1.5-0.82,3.16-0.82,4.99
		c0,4.05,0.93,7.11,2.8,9.19c1.86,2.08,4.63,3.11,8.29,3.11c1.9,0,3.57-0.39,5.01-1.16s2.8-1.9,4.06-3.38l-1.64-1.69
		c-1.55,1.37-2.88,2.27-3.98,2.69c-1.11,0.42-2.19,0.63-3.25,0.63c-2.32,0-4.06-0.75-5.23-2.25c-1.16-1.49-1.81-3.63-1.95-6.41
		H1002.26z M976.16,195.88v-14.57c0-1.23-0.05-2.41-0.16-3.54c-0.1-1.12-0.42-2.11-0.95-2.96c-0.53-0.84-1.33-1.52-2.4-2.03
		s-2.56-0.77-4.46-0.77c-1.19,0-2.24,0.19-3.14,0.55c-0.9,0.37-1.65,0.8-2.27,1.29c-0.62,0.49-1.11,0.99-1.48,1.48
		c-0.37,0.49-0.62,0.86-0.77,1.11l-0.53-4.01l-3.96,0.37c0.03,0.18,0.08,0.48,0.13,0.92s0.1,0.94,0.16,1.51
		c0.05,0.56,0.1,1.14,0.13,1.74c0.04,0.6,0.05,1.16,0.05,1.69v17.21h4.12V182.9c0-1.06,0.17-2.06,0.5-3.01s0.79-1.78,1.37-2.48
		s1.27-1.26,2.06-1.66c0.79-0.4,1.66-0.61,2.61-0.61c1.06,0,1.91,0.13,2.56,0.4c0.65,0.26,1.14,0.66,1.48,1.19
		c0.33,0.53,0.55,1.18,0.66,1.95s0.16,1.65,0.16,2.64v14.57L976.16,195.88L976.16,195.88z M947.97,172.71h-4.22v23.17h4.22V172.71z
		 M947.76,161.5c-0.53-0.55-1.14-0.82-1.85-0.82c-0.74,0-1.37,0.27-1.9,0.82c-0.53,0.54-0.79,1.17-0.79,1.87s0.26,1.32,0.79,1.85
		c0.53,0.53,1.16,0.79,1.9,0.79c0.7,0,1.32-0.26,1.85-0.79c0.53-0.53,0.79-1.14,0.79-1.85S948.29,162.04,947.76,161.5
		 M931.32,176.51c0.9,1.26,1.35,2.96,1.35,5.07v0.79h-11.45c0.14-1.02,0.39-2,0.74-2.93s0.8-1.76,1.34-2.48
		c0.55-0.72,1.2-1.29,1.95-1.72c0.76-0.42,1.61-0.63,2.56-0.63C929.26,174.61,930.43,175.25,931.32,176.51 M936.79,185.01v-2.32
		c0-1.3-0.15-2.59-0.45-3.88c-0.3-1.28-0.8-2.43-1.51-3.43c-0.7-1-1.65-1.81-2.82-2.43c-1.18-0.61-2.67-0.92-4.46-0.92
		c-1.48,0-2.86,0.3-4.14,0.9c-1.28,0.6-2.4,1.43-3.35,2.51c-0.95,1.07-1.7,2.36-2.24,3.85c-0.55,1.5-0.82,3.16-0.82,4.99
		c0,4.05,0.93,7.11,2.8,9.19c1.86,2.08,4.63,3.11,8.29,3.11c1.9,0,3.57-0.39,5.02-1.16c1.44-0.77,2.8-1.9,4.06-3.38l-1.64-1.69
		c-1.55,1.37-2.88,2.27-3.98,2.69c-1.11,0.42-2.19,0.63-3.25,0.63c-2.32,0-4.06-0.75-5.23-2.25c-1.16-1.49-1.81-3.63-1.95-6.41
		H936.79z M889.39,195.88v-15.73h16.2v15.73h4.22v-32.94h-4.22v14.3h-16.2v-14.3h-4.22v32.94H889.39z M845.47,160h-4.12v35.89h4.12
		V182.9c0-1.06,0.17-2.06,0.5-3.01s0.79-1.78,1.37-2.48s1.27-1.26,2.06-1.66c0.79-0.4,1.66-0.61,2.61-0.61
		c1.06,0,1.91,0.13,2.56,0.4c0.65,0.26,1.14,0.66,1.48,1.19c0.33,0.53,0.55,1.18,0.66,1.95c0.1,0.77,0.16,1.65,0.16,2.64v14.57h4.12
		v-14.57c0-1.23-0.05-2.41-0.16-3.54c-0.11-1.12-0.42-2.11-0.95-2.96c-0.53-0.84-1.33-1.52-2.4-2.03s-2.56-0.77-4.46-0.77
		c-1.2,0-2.24,0.18-3.11,0.53c-0.88,0.35-1.62,0.77-2.22,1.24s-1.08,0.96-1.45,1.45c-0.37,0.49-0.62,0.86-0.77,1.11L845.47,160
		L845.47,160z M834.33,190.66c-1.3,1.23-2.43,2.05-3.38,2.45s-1.97,0.61-3.06,0.61c-1.27,0-2.33-0.25-3.19-0.74
		s-1.56-1.16-2.08-2.01c-0.53-0.84-0.91-1.81-1.13-2.9c-0.23-1.09-0.34-2.22-0.34-3.38s0.13-2.34,0.4-3.54
		c0.26-1.2,0.68-2.28,1.24-3.25s1.28-1.76,2.16-2.38c0.88-0.61,1.92-0.92,3.11-0.92c1.34,0,2.4,0.21,3.19,0.63s1.51,0.95,2.14,1.58
		l2-3.01c-1.02-0.7-2.14-1.18-3.35-1.43c-1.21-0.25-2.4-0.37-3.56-0.37c-1.79,0-3.42,0.31-4.88,0.92c-1.46,0.62-2.69,1.48-3.7,2.59
		c-1,1.11-1.78,2.43-2.32,3.96c-0.54,1.53-0.82,3.21-0.82,5.04c0,3.94,0.98,6.93,2.96,8.97c1.97,2.04,4.7,3.06,8.18,3.06
		c0.56,0,1.19-0.06,1.87-0.19s1.38-0.33,2.08-0.63s1.4-0.72,2.09-1.27c0.69-0.54,1.35-1.24,1.98-2.08L834.33,190.66z M810.1,172.71
		h-4.22v23.17h4.22V172.71z M809.89,161.5c-0.53-0.55-1.14-0.82-1.85-0.82c-0.74,0-1.37,0.27-1.9,0.82
		c-0.53,0.54-0.79,1.17-0.79,1.87s0.26,1.32,0.79,1.85c0.53,0.53,1.16,0.79,1.9,0.79c0.71,0,1.32-0.26,1.85-0.79
		c0.53-0.53,0.79-1.14,0.79-1.85S810.42,162.04,809.89,161.5 M786.26,195.88h3.9v-11.14c0-0.77,0.03-1.55,0.08-2.32
		c0.05-0.78,0.17-1.51,0.34-2.22c0.39-1.44,0.96-2.65,1.72-3.62c0.75-0.97,1.61-1.45,2.56-1.45c1.59,0,2.43,0.86,2.53,2.58
		l3.43-1.21c-0.03-0.78-0.19-1.44-0.47-2.01c-0.28-0.56-0.63-1.01-1.06-1.35c-0.42-0.33-0.89-0.58-1.4-0.74s-0.99-0.24-1.45-0.24
		c-1.37,0-2.57,0.39-3.59,1.16s-1.88,1.81-2.59,3.11l-0.53-4.01l-3.96,0.37c0.03,0.18,0.08,0.48,0.13,0.92s0.11,0.94,0.16,1.51
		c0.05,0.56,0.1,1.14,0.13,1.74s0.05,1.16,0.05,1.69v17.23H786.26z M778.42,195.88v-14.57c0-1.23-0.05-2.41-0.16-3.54
		c-0.11-1.12-0.42-2.11-0.95-2.96c-0.53-0.84-1.33-1.52-2.4-2.03s-2.56-0.77-4.46-0.77c-1.2,0-2.24,0.19-3.14,0.55
		c-0.9,0.37-1.66,0.8-2.27,1.29c-0.61,0.49-1.11,0.99-1.48,1.48c-0.37,0.49-0.63,0.86-0.77,1.11l-0.53-4.01l-3.96,0.37
		c0.03,0.18,0.08,0.48,0.13,0.92s0.11,0.94,0.16,1.51c0.05,0.56,0.1,1.14,0.13,1.74s0.05,1.16,0.05,1.69v17.21h4.12V182.9
		c0-1.06,0.17-2.06,0.5-3.01s0.79-1.78,1.37-2.48s1.27-1.26,2.06-1.66c0.79-0.4,1.66-0.61,2.61-0.61c1.06,0,1.91,0.13,2.56,0.4
		c0.65,0.26,1.14,0.66,1.48,1.19s0.55,1.18,0.66,1.95s0.16,1.65,0.16,2.64v14.57L778.42,195.88L778.42,195.88z M750.13,172.71h-4.22
		v23.17h4.22V172.71z M749.91,161.5c-0.53-0.55-1.14-0.82-1.85-0.82c-0.74,0-1.37,0.27-1.9,0.82c-0.53,0.54-0.79,1.17-0.79,1.87
		s0.26,1.32,0.79,1.85c0.53,0.53,1.16,0.79,1.9,0.79c0.7,0,1.32-0.26,1.85-0.79c0.53-0.53,0.79-1.14,0.79-1.85
		S750.44,162.04,749.91,161.5 M733.1,176.51c0.9,1.26,1.35,2.96,1.35,5.07v0.79H723c0.14-1.02,0.39-2,0.74-2.93s0.8-1.76,1.35-2.48
		c0.54-0.72,1.19-1.29,1.95-1.72c0.76-0.42,1.61-0.63,2.56-0.63C731.03,174.61,732.21,175.25,733.1,176.51 M738.57,185.01v-2.32
		c0-1.3-0.15-2.59-0.45-3.88s-0.8-2.43-1.5-3.43c-0.71-1-1.65-1.81-2.83-2.43c-1.18-0.61-2.66-0.92-4.46-0.92
		c-1.48,0-2.86,0.3-4.14,0.9c-1.29,0.6-2.4,1.43-3.35,2.51c-0.95,1.07-1.7,2.36-2.24,3.85c-0.55,1.5-0.82,3.16-0.82,4.99
		c0,4.05,0.93,7.11,2.8,9.19c1.86,2.08,4.63,3.11,8.29,3.11c1.9,0,3.57-0.39,5.01-1.16s2.8-1.9,4.07-3.38l-1.64-1.69
		c-1.55,1.37-2.88,2.27-3.98,2.69c-1.11,0.42-2.19,0.63-3.24,0.63c-2.32,0-4.07-0.75-5.23-2.25c-1.16-1.49-1.81-3.63-1.95-6.41
		H738.57z M691.22,195.88v-15.73h16.21v15.73h4.22v-32.94h-4.22v14.3h-16.21v-14.3H687v32.94H691.22z"/>
	<path class="st0" d="M962.74,331.33h34.73c15.24,0,27.6-12.32,27.6-27.53s-12.36-27.53-27.6-27.53h-34.73V331.33z"/>
</g>
</svg>
