# File produced by Open Asset Import Library (http://www.assimp.sf.net)
# (assimp v5.0.1588609223)

mtllib result.mtl

# 78 vertex positions
v  24.695795 -4982.668 -17.096224
v  -2658.6255 -4294.5337 -70.985428
v  -803.51648 -4333.8281 -2381.9629
v  3656.9751 -2208.7781 2798.8086
v  4250.4707 -2632.2698 -2.5293131
v  4673.2314 18.907703 1635.3824
v  -1286.7263 -2272.9797 4349.7798
v  1327.5974 -2650.3352 4050.2441
v  -129.47623 -138.71834 4954.9268
v  -4563.3423 -2252.3999 -119.54913
v  -3428.1853 -2751.4329 2595.9414
v  -4708.4419 -64.46183 1558.6462
v  1227.3125 -2590.4536 -4082.0144
v  2825.0576 97.326401 -3990.4004
v  3284.8579 31.182343 -4352.4316
v  1375.3353 -2770.6428 -4264.9297
v  2921.3232 59.642117 4023.3018
v  -2807.4329 30.369368 4192.5205
v  -4750.0347 11.797001 -1543.9324
v  3516.6077 -2127.2815 -2576.3118
v  3817.3118 -2357.5583 -2769.3218
v  1304.8593 2114.9583 4231.2847
v  3517.0771 2606.5876 2539.7397
v  916.15582 4317.2476 2400.8611
v  -1464.4641 -2380.1587 4463.0239
v  1356.5149 -2692.0293 4331.5664
v  -4327.627 2610.8977 92.42495
v  -4951.9243 40.410515 1740.4595
v  -4423.4922 2832.6545 -67.911812
v  1412.7692 2342.0725 -4219.4585
v  -1241.7596 2498.021 -4070.3154
v  823.69592 4232.0444 -2479.8799
v  2616.3362 4200.8394 29.915932
v  2902.2366 4518.6934 64.215034
v  852.35461 4473.5591 -2707.7859
v  45.656696 4975.9595 180.35515
v  3802.9282 2831.644 2727.4463
v  1461.7482 2491.1702 -4423.8975
v  -2104.155 4287.2686 -1606.9323
v  -3523.0042 -2749.4922 2614.3647
v  -3017.9192 -59.487629 4206.1279
v  -1484.6891 -2307.4097 -4333.6792
v  -3617.8635 -2756.262 -2565.0046
v  -1374.7284 -2152.2021 -4527.9404
v  -3635.2246 2238.1167 2614.532
v  -3742.1074 2223.083 2731.7666
v  -2731.3691 -4473.8579 67.252472
v  -817.27905 -4585.4365 -2518.6646
v  95.257454 -5358.479 102.81622
v  -1315.1704 2631.821 4049.9004
v  5016.7788 124.46773 1682.8646
v  3119.72 67.822151 4286.0464
v  1581.6694 2165.7 4594.6646
v  222.51129 95.33963 5299.7749
v  4813.8657 24.881781 -1614.3447
v  5015.2466 41.608505 -1700.3629
v  -19.122534 53.068386 -4989.5693
v  -2949.0957 24.896645 -4030.8552
v  -5055.9126 2.1061108 -1736.8419
v  -2186.1838 4386.7905 -1677.02
v  -155.90927 5237.2046 34.566067
v  -1332.1196 2780.978 4089.6768
v  4470.2056 2221.2046 -29.538042
v  4845.582 2496.2988 -116.83508
v  -3368.76 -2603.8037 -2465.9919
v  -2963.415 29.214195 -4173.2271
v  -1453.2113 2751.1963 -4365.0127
v  -137.94754 24.214817 -5213.8662
v  2149.0425 -4251.4282 -1523.1429
v  714.43604 4615.9561 2541.8313
v  3770.0969 -2416.6165 2560.6743
v  4323.501 -2798.8381 -1.9826531
v  2220.8291 -4623.5332 -1463.7554
v  3715.9907 2869.4463 -2637.1804
v  2352.3801 -4484.4863 1636.0497
v  -875.81616 -4334.7632 2583.3267
v  -2140.8704 4458.103 1508.7444
v  -3788.678 2331.9624 -2795.2471

# 0 UV coordinates

# 119 vertex normals
vn -0.24112965 -0.95415246 -0.17734011
vn 0.92437702 -0.29604298 0.24059446
vn 0.064905055 -0.30462825 0.95025736
vn -0.89746648 -0.30437604 0.31923229
vn -0.54372025 0.34795019 -0.76374018
vn 0.80443901 -0.058234934 0.59117383
vn -0.27881438 -0.11901609 0.95294166
vn -0.99711937 -0.074966587 0.011524759
vn -0.22538032 -0.78047073 0.5831545
vn 0.37833107 0.63026232 0.67796385
vn 0.14637642 0.9060421 0.39706621
vn -0.44133899 -0.40590444 -0.80028838
vn -0.0015827138 0.67695785 -0.73602003
vn -0.67608088 0.54992849 0.49040127
vn 0.27388272 0.94402033 -0.1838856
vn -0.67820501 0.4904457 0.54726684
vn -0.96607947 -0.079822026 -0.24559921
vn -0.067536712 0.95555687 -0.28696674
vn -0.16957246 0.76820356 -0.61733985
vn -0.55214757 -0.50470412 -0.66363162
vn 0.20082228 0.21903105 0.95482773
vn -0.4642233 -0.54498941 -0.69819999
vn 0.13425294 0.58840561 0.79734248
vn -0.095773183 0.8102079 -0.57826519
vn -0.94797921 -0.093957737 0.30415013
vn 0.07463292 0.64516622 0.76038837
vn 0.29356414 0.94171852 0.16427527
vn 0.50755513 0.79806387 0.32477954
vn 0.14680305 -0.98366308 0.10419107
vn -0.33980361 0.93282211 -0.11990172
vn -0.70800024 0.58708793 0.39250937
vn 0.24569046 -0.50414276 0.82793486
vn -0.033050288 0.3372131 -0.94084805
vn -0.30661079 0.19681166 -0.93126523
vn -0.71132451 -0.25945655 0.6532225
vn 0.63368219 0.035718735 -0.77276844
vn -0.98854184 0.14999405 0.016938852
vn -0.16780463 -0.81101173 0.56044751
vn -0.53515238 0.34914926 0.76922482
vn -0.25668612 0.19909213 0.94576669
vn -0.0049745333 0.30858549 0.95118362
vn 0.46189675 -0.46395576 0.75590765
vn -0.62229502 -0.46802551 -0.62745601
vn 0.2584638 -0.56974572 -0.7801193
vn 0.32788205 0.11054981 -0.93822813
vn 0.32922778 -0.16401291 -0.92989725
vn 0.057052229 -0.3000114 -0.95222801
vn -0.31442356 -0.43906417 0.8416416
vn 0.66600877 -0.43932214 -0.60285032
vn -0.86336493 -0.31776232 -0.39195439
vn 0.82002437 0.55996323 -0.1183266
vn -0.10495468 -0.41899261 -0.90190333
vn -0.024169056 0.99802351 -0.058007266
vn 0.11715899 -0.95445246 0.27439794
vn 0.29785985 -0.16582365 0.94009686
vn 0.49499694 -0.28293779 0.82153773
vn 0.99134493 0.12399558 0.043129288
vn 0.98226607 -0.18268795 0.042172033
vn 0.86759508 -0.37913767 -0.32176602
vn 0.51386184 -0.62315834 -0.58959275
vn 0.19133532 -0.79038554 -0.58196348
vn -0.0057568974 -0.69469821 -0.71927828
vn -0.44924819 -0.69349313 -0.56324345
vn -0.50536615 -0.76841527 -0.39261064
vn -0.70327413 -0.66210681 -0.25888219
vn -0.72162187 -0.66881251 0.17875025
vn 0.82046968 -0.54225671 -0.18107231
vn 0.60996097 -0.021870008 0.79212958
vn 0.71350336 -0.62060708 -0.32520738
vn 0.80407393 0.57790327 -0.13961674
vn 0.91927755 0.3673439 0.14137666
vn 0.54773408 0.054361816 -0.83488452
vn 0.55426717 -0.47858089 0.6809907
vn 0.30012336 0.1447951 -0.94284689
vn 0.52862197 -0.38391462 -0.75707883
vn 0.8252604 -0.17245395 -0.5377776
vn 0.6955213 0.68713439 -0.2099916
vn 0.46338171 0.81155723 -0.3558825
vn 0.38996971 0.66828382 -0.63349837
vn 0.71696717 0.67251265 0.18353447
vn 0.88849181 0.29054892 -0.35519508
vn 0.820333 0.19932725 -0.53602457
vn 0.53620887 0.37542444 -0.7560004
vn 0.56058013 0.29728594 0.7728979
vn 0.79965931 0.13258271 0.58563381
vn 0.90855587 0.2921595 0.2986117
vn 0.32936928 0.10341008 0.93852133
vn 0.076879524 -0.9106642 0.40593138
vn 0.74154335 -0.62144446 0.25282466
vn -0.29100224 -0.91916746 0.26542196
vn 0.096591197 -0.94505727 -0.312309
vn -0.58110338 -0.30020553 -0.75643611
vn -0.34407565 -0.098752379 -0.93373442
vn -0.47894701 0.65991175 0.57890093
vn -0.67592317 0.68075895 -0.28230336
vn -0.48946607 0.67928618 -0.54680282
vn -0.37521833 0.92680842 -0.015409427
vn -0.57537866 0.81782454 -0.010122894
vn -0.68424648 0.65997422 0.31022716
vn -0.15657179 0.9446196 0.28840783
vn -0.25318834 0.77302468 0.58166009
vn -0.57032436 0.26156288 -0.77866232
vn -0.89163929 0.36061773 -0.27374113
vn -0.88637048 0.35792941 0.29365611
vn -0.75408697 0.11653128 -0.64635384
vn -0.74296212 -0.19510512 -0.6402666
vn -0.7748723 0.150685 0.61389488
vn -0.77357888 -0.20879291 0.59831542
vn -0.60034627 -0.32077444 0.73259002
vn -0.46968138 -0.79194307 0.39016077
vn -0.40841976 -0.69362307 0.59336358
vn 0.65291744 -0.75740308 0.0062657967
vn 0.3446767 -0.93831968 0.027462319
vn -0.044070791 -0.6993506 0.7134189
vn 0.13375637 -0.80171955 0.58254188
vn 0.50992757 -0.61742413 0.59896684
vn 0.41637796 -0.86405575 0.28290823
vn -0.93372357 0.11830212 -0.33788309
vn -0.10235269 0.98242027 0.15612294

# Mesh 'Icosphere.005' with 119 faces
g Icosphere.005
usemtl Material.001
f  1//1 2//1 3//1
f  4//2 5//2 6//2
f  7//3 8//3 9//3
f  10//4 11//4 12//4
f  13//5 14//5 15//5 16//5
f  4//6 6//6 17//6
f  7//7 9//7 18//7
f  10//8 12//8 19//8
f  20//9 13//9 16//9 21//9
f  22//10 23//10 24//10
f  8//11 7//11 25//11 26//11
f  27//12 12//12 28//12 29//12
f  30//13 31//13 32//13
f  32//14 33//14 34//14 35//14
f  33//15 32//15 36//15
f  33//16 23//16 37//16 34//16
f  30//17 32//17 35//17 38//17
f  32//18 39//18 36//18
f  32//19 31//19 39//19
f  12//20 11//20 40//20 28//20
f  7//21 18//21 41//21 25//21
f  42//22 43//22 44//22
f  18//23 45//23 46//23 41//23
f  11//24 47//24 40//24
f  1//25 3//25 48//25 49//25
f  50//26 22//26 24//26
f  24//27 33//27 36//27
f  24//28 23//28 33//28
f  17//29 6//29 51//29 52//29
f  23//30 22//30 53//30 37//30
f  22//31 9//31 54//31 53//31
f  55//32 20//32 21//32 56//32
f  57//33 31//33 30//33
f  57//34 58//34 31//34
f  19//35 27//35 29//35 59//35
f  36//36 39//36 60//36 61//36
f  19//37 12//37 27//37
f  45//38 50//38 62//38 46//38
f  18//39 50//39 45//39
f  18//40 9//40 50//40
f  9//41 22//41 50//41
f  63//42 55//42 56//42 64//42
f  14//43 30//43 38//43 15//43
f  6//44 63//44 64//44 51//44
f  14//45 57//45 30//45
f  14//46 13//46 57//46
f  13//47 42//47 57//47
f  65//48 19//48 59//48 43//48
f  31//49 58//49 66//49 67//49
f  65//50 10//50 19//50
f  39//51 31//51 67//51 60//51
f  2//52 1//52 49//52 47//52
f  58//53 57//53 68//53 66//53
f  9//54 17//54 52//54 54//54
f  9//55 8//55 17//55
f  8//56 4//56 17//56
f  6//57 55//57 63//57
f  6//58 5//58 55//58
f  5//59 20//59 55//59
f  69//60 13//60 20//60
f  69//61 3//61 13//61
f  3//62 42//62 13//62
f  3//63 65//63 42//63
f  3//64 2//64 65//64
f  2//65 10//65 65//65
f  2//66 11//66 10//66
f  57//67 42//67 44//67 68//67
f  50//68 24//68 70//68 62//68
f  5//69 69//69 20//69
f  24//70 36//70 61//70 70//70
f  5//71 4//71 71//71 72//71
f  69//72 5//72 72//72 73//72
f  4//73 26//73 71//73
f  3//74 69//74 73//74 48//74
f  21//75 16//75 15//75
f  21//76 15//76 56//76
f  64//77 74//77 34//77
f  34//78 74//78 35//78
f  74//79 38//79 35//79
f  37//80 64//80 34//80
f  56//81 74//81 64//81
f  56//82 15//82 74//82
f  15//83 38//83 74//83
f  52//84 37//84 53//84
f  52//85 51//85 37//85
f  51//86 64//86 37//86
f  54//87 52//87 53//87
f  49//88 75//88 76//88
f  71//89 75//89 72//89
f  49//90 76//90 47//90
f  49//91 48//91 73//91
f  44//92 43//92 66//92
f  44//93 66//93 68//93
f  46//94 62//94 77//94
f  78//95 29//95 60//95
f  67//96 78//96 60//96
f  60//97 77//97 61//97
f  60//98 29//98 77//98
f  29//99 46//99 77//99
f  77//100 70//100 61//100
f  77//101 62//101 70//101
f  66//102 78//102 67//102
f  59//103 29//103 78//103
f  28//104 46//104 29//104
f  66//105 59//105 78//105
f  66//106 43//106 59//106
f  28//107 41//107 46//107
f  28//108 40//108 41//108
f  40//109 25//109 41//109
f  47//110 76//110 40//110
f  76//111 25//111 40//111
f  72//112 75//112 73//112
f  75//113 49//113 73//113
f  76//114 26//114 25//114
f  76//115 75//115 26//115
f  75//116 71//116 26//116
f  42//117 65//117 43//117
f  11//118 2//118 47//118
f  4//119 8//119 26//119

