# File produced by Open Asset Import Library (http://www.assimp.sf.net)
# (assimp v5.0.1588609223)

mtllib result.mtl

# 65 vertex positions
v  311.43723 -168.62843 308.51019
v  170.9567 -349.46246 220.27509
v  361.86813 -246.16183 2.5921941
v  -25.289303 -413.33932 81.801697
v  -57.049477 -418.49075 -181.15327
v  129.84384 -383.56653 -47.110065
v  393.2049 10.584283 147.10805
v  -10.605216 -56.173622 506.61206
v  193.58885 -147.13759 444.85773
v  99.910645 124.99008 574.54199
v  -128.80405 -307.05832 -362.49405
v  -284.27338 -326.63016 -206.25606
v  -262.09503 -132.00818 -347.46976
v  392.91769 -287.03186 -305.61182
v  176.46658 -328.38513 -455.93524
v  335.05554 -107.88401 -448.32053
v  309.33185 56.711853 442.44565
v  -135.26889 122.8646 489.94504
v  73.710762 -121.94144 -546.20599
v  442.05054 -254.599 -278.87021
v  416.05566 -220.3824 -20.840036
v  202.54182 251.08545 465.12076
v  357.4747 258.8699 242.78519
v  218.34293 442.81387 343.93127
v  -158.3203 304.69522 299.03406
v  -8.7838535 342.37906 495.56967
v  -69.572548 395.31329 162.3598
v  -287.59933 184.75629 -129.59442
v  -219.47427 345.26263 81.002373
v  -77.549797 402.85858 -87.344826
v  182.05669 73.926338 -473.15207
v  18.9687 162.21611 -375.39154
v  118.13159 355.10034 -157.5425
v  368.4014 188.70378 22.869324
v  407.13086 131.53107 -216.69298
v  280.19061 388.8721 33.527672
v  64.069595 449.93521 112.17816
v  -93.177391 403.66193 -148.53737
v  -285.00131 207.23991 -185.86928
v  -263.00882 -72.015854 -377.71295
v  29.545195 -64.968681 -551.80597
v  426.04852 148.71819 -1.2377024
v  461.78192 100.237 -204.17598
v  446.81415 -0.40447712 102.77567
v  88.130478 365.92841 -208.48065
v  -15.864205 187.89841 -401.04929
v  -348.24115 48.777843 -12.861776
v  -215.21201 289.99634 312.98495
v  -189.28334 102.27485 504.65094
v  -142.57362 -381.82532 344.58984
v  -166.36536 -412.22397 371.04922
v  187.18393 -187.63937 461.58585
v  -273.91977 330.24231 110.12936
v  -57.756279 -78.166809 533.73273
v  165.65321 -374.22461 238.02707
v  -36.692272 -456.28491 100.20636
v  401.44006 -100.20269 -398.09589
v  -81.731857 -454.57144 -155.55704
v  -321.30923 -350.89636 -180.83577
v  -392.17261 37.30452 18.160141
v  -333.46536 -405.67255 155.40419
v  -416.90549 -119.9155 113.36926
v  -276.07785 -138.17284 365.71463
v  -345.07883 127.48983 224.30586
v  467.02692 -28.61068 -136.41922

# 0 UV coordinates

# 103 vertex normals
vn 0.68560958 -0.67070466 0.28301018
vn 0.18590753 -0.98256207 -0.003205373
vn 0.94705021 -0.23732415 0.21627076
vn 0.096988298 -0.40076983 0.91103071
vn -0.61882913 -0.41390222 -0.66763419
vn 0.57455301 -0.3883501 -0.72046727
vn 0.94159973 -0.16550423 0.29325476
vn -0.3337042 -0.14565575 0.93135703
vn -0.48013556 -0.2946845 -0.82621479
vn 0.48036709 -0.86184818 0.16268104
vn 0.7814191 0.28612134 0.55454373
vn -0.50510925 0.83333617 0.22453398
vn -0.6526193 0.68941242 -0.31432241
vn 0.0062357904 0.74727863 -0.66448158
vn 0.91485536 0.40037367 0.0523513
vn 0.15693109 0.94111884 -0.29944637
vn 0.45603135 0.72576761 -0.51506966
vn 0.43978757 0.71298367 -0.5461145
vn 0.11993095 0.94385421 -0.30782431
vn -0.7217623 0.65927374 0.21075396
vn -0.45546025 -0.41663143 -0.78674912
vn -0.36520481 0.93007725 0.039771177
vn -0.33551738 0.94121975 0.039159402
vn -0.43793371 0.85373878 0.28168091
vn -0.29507127 0.92861563 0.22495769
vn -0.28120872 0.93849063 0.20039193
vn 0.32662186 0.48561782 0.8108598
vn 0.2283709 0.96585661 -0.12234322
vn 0.81188983 0.58062899 0.060866944
vn 0.91017449 0.40558094 -0.084181421
vn 0.52407765 0.8440938 -0.11334989
vn 0.60800046 0.50941569 0.60895896
vn 0.62484568 0.43750715 -0.64664942
vn -0.25969893 0.46028733 -0.8489359
vn 0.2243599 0.97445726 0.0097835865
vn 0.69792861 0.45922959 -0.5495488
vn -0.91613579 0.40076533 -0.0090866368
vn -0.04750004 0.71538657 0.69711244
vn -0.7580604 0.42410174 0.49546164
vn -0.33495063 0.16924998 0.92691016
vn 0.31823149 0.46020594 0.82881802
vn 0.76117581 0.35486782 0.54284465
vn 0.96279663 0.035314586 0.26790917
vn 0.99002445 0.14083175 0.0042562373
vn 0.3388311 0.15847176 -0.92740512
vn 0.35244432 -0.22209041 -0.90909779
vn -0.2852644 -0.49963516 -0.81791735
vn -0.93677312 0.14395775 -0.31895512
vn -0.97346401 -0.05094317 -0.22309777
vn -0.55573595 0.59214348 0.58354408
vn -0.166324 0.95853269 0.23141177
vn 0.25463328 0.29852825 0.91980582
vn 0.61117321 -0.48487476 -0.62559062
vn 0.57088256 0.22141501 0.79061276
vn 0.45714784 -0.24946091 0.85368919
vn 0.67174673 -0.37384135 0.63953036
vn 0.46836931 0.53745431 -0.70126539
vn 0.51504982 -0.47018775 0.71669191
vn 0.60066545 -0.37652975 -0.7052846
vn 0.25385341 -0.96196622 -0.10089222
vn 0.25235021 -0.96233857 -0.10111391
vn -0.19974011 -0.86810952 -0.45441136
vn -0.30278942 -0.8607744 -0.40912846
vn 0.87392622 -0.46936795 -0.12627994
vn 0.98690134 -0.15662299 0.038666315
vn -0.62744564 0.26538035 -0.73204184
vn 0.72597963 -0.49812356 0.47415873
vn -0.5507468 0.45203447 -0.70167142
vn 0.47675586 -0.86386919 0.16258521
vn 0.50410801 -0.86302638 0.032564957
vn 0.25449699 -0.96344012 0.083752252
vn 0.060475018 -0.46416691 0.88368082
vn -0.1417971 -0.55049032 -0.82271141
vn 0.51106507 -0.66358739 0.54631895
vn 0.20984733 -0.94414794 0.25406474
vn -0.15161932 -0.98455173 0.087576114
vn -0.16404475 -0.98620123 0.022281092
vn -0.8716777 0.03383803 0.48891002
vn -0.9664852 0.22590078 0.12196437
vn -0.93182003 0.35857368 0.056003086
vn -0.81700599 0.47270393 0.33023033
vn -0.95647079 -0.025578707 -0.29070497
vn -0.79522276 0.37589389 0.47573596
vn -0.87235063 0.033052351 0.48776218
vn -0.54102188 -0.26576042 0.79791403
vn -0.37743068 -0.91172695 -0.16217294
vn -0.95339847 -0.29041913 -0.081780255
vn -0.86400914 -0.18330972 0.46891975
vn -0.76005995 -0.29298815 0.58005762
vn -0.55984664 -0.20851649 0.80193055
vn 0.32072592 -0.74214721 0.58851725
vn 0.96483374 0.055345368 -0.25696856
vn 0.98253554 0.11635596 0.14520805
vn 0.97187459 -0.077399284 -0.22241643
vn 0.98176408 0.17979112 0.061761189
vn 0.97499955 -0.1955895 0.10545468
vn 0.97500998 -0.18515149 0.12277836
vn -0.062015396 0.74933994 -0.65927517
vn -0.47777805 0.59025341 -0.65063745
vn -0.47889197 0.38450664 -0.78918761
vn -0.53845948 0.4479219 -0.71374172
vn 0.79290956 0.20186782 -0.57492936
vn -0.99754483 -0.03995946 -0.057511207

# Mesh 'Icosphere.004' with 103 faces
g Icosphere.004
usemtl Material.002
f  1//1 2//1 3//1
f  4//2 5//2 6//2
f  1//3 3//3 7//3
f  8//4 9//4 10//4
f  11//5 12//5 13//5
f  14//6 15//6 16//6
f  1//7 7//7 17//7
f  8//8 10//8 18//8
f  11//9 13//9 19//9
f  3//10 14//10 20//10 21//10
f  22//11 23//11 24//11
f  25//12 26//12 27//12
f  28//13 29//13 30//13
f  31//14 32//14 33//14
f  34//15 35//15 36//15
f  36//16 33//16 37//16
f  36//17 35//17 33//17
f  35//18 31//18 33//18
f  33//19 30//19 37//19
f  28//20 30//20 38//20 39//20
f  19//21 13//21 40//21 41//21
f  30//22 27//22 37//22
f  30//23 29//23 27//23
f  29//24 25//24 27//24
f  27//25 24//25 37//25
f  27//26 26//26 24//26
f  26//27 22//27 24//27
f  24//28 36//28 37//28
f  24//29 23//29 36//29
f  23//30 34//30 36//30
f  35//31 34//31 42//31 43//31
f  34//32 7//32 44//32 42//32
f  16//33 31//33 35//33
f  19//34 32//34 31//34
f  30//35 33//35 45//35 38//35
f  32//36 19//36 41//36 46//36
f  47//37 29//37 28//37
f  18//38 25//38 48//38 49//38
f  18//39 26//39 25//39
f  18//40 10//40 26//40
f  10//41 22//41 26//41
f  17//42 23//42 22//42
f  17//43 7//43 23//43
f  7//44 34//44 23//44
f  16//45 19//45 31//45
f  16//46 15//46 19//46
f  15//47 11//47 19//47
f  13//48 47//48 28//48
f  13//49 12//49 47//49
f  9//50 50//50 51//50 52//50
f  25//51 29//51 53//51 48//51
f  8//52 18//52 49//52 54//52
f  4//53 2//53 55//53 56//53
f  10//54 17//54 22//54
f  10//55 9//55 17//55
f  9//56 1//56 17//56
f  16//57 35//57 43//57 57//57
f  7//58 3//58 21//58 44//58
f  14//59 16//59 57//59 20//59
f  6//60 15//60 14//60
f  6//61 5//61 15//61
f  5//62 11//62 15//62
f  5//63 12//63 11//63
f  5//64 4//64 56//64 58//64
f  2//65 9//65 52//65 55//65
f  47//66 12//66 59//66 60//66
f  50//67 8//67 54//67 51//67
f  29//68 47//68 60//68 53//68
f  3//69 6//69 14//69
f  3//70 2//70 6//70
f  2//71 4//71 6//71
f  50//72 9//72 8//72
f  12//73 5//73 58//73 59//73
f  2//74 1//74 9//74
f  56//75 55//75 51//75
f  56//76 51//76 61//76
f  56//77 61//77 58//77
f  62//78 63//78 64//78
f  62//79 64//79 60//79
f  60//80 64//80 53//80
f  64//81 48//81 53//81
f  59//82 62//82 60//82
f  64//83 49//83 48//83
f  64//84 63//84 49//84
f  63//85 54//85 49//85
f  58//86 61//86 59//86
f  61//87 62//87 59//87
f  61//88 63//88 62//88
f  61//89 51//89 63//89
f  51//90 54//90 63//90
f  51//91 55//91 52//91
f  20//92 57//92 65//92
f  65//93 43//93 42//93
f  65//94 57//94 43//94
f  44//95 65//95 42//95
f  44//96 21//96 65//96
f  21//97 20//97 65//97
f  45//98 46//98 38//98
f  46//99 39//99 38//99
f  41//100 40//100 46//100
f  40//101 39//101 46//101
f  33//102 32//102 46//102 45//102
f  13//103 28//103 39//103 40//103

