# File produced by Open Asset Import Library (http://www.assimp.sf.net)
# (assimp v5.0.1588609223)

mtllib result.mtl

# 189 vertex positions
v  -6.8327694 355.4093 -19.744938
v  33.367191 292.56668 239.23827
v  265.40915 262.86844 93.566299
v  47.852234 116.50839 375.00137
v  133.6664 -97.053459 413.9801
v  212.20863 136.48688 297.57214
v  106.35035 267.37027 -174.09036
v  -317.00131 220.41707 52.605713
v  -161.49965 342.53653 49.62429
v  -357.78104 253.29852 -103.77773
v  263.51263 -270.78653 319.18805
v  24.316555 -286.42984 380.35748
v  178.68993 -397.34732 190.41533
v  510.85367 133.34015 131.4155
v  500.6774 -86.917267 307.20493
v  571.27722 -35.883095 118.69309
v  548.7417 -8.6042423 148.45264
v  525.10767 39.772022 165.86366
v  529.88556 65.381798 137.64001
v  530.15344 69.159714 134.42264
v  528.86444 74.356827 133.58607
v  529.0498 80.370956 128.98647
v  531.95343 84.806358 119.60242
v  -143.14473 334.70285 -186.56004
v  -401.62421 58.8111 -28.469685
v  500.8038 -260.46234 165.52675
v  483.2316 198.56009 57.674294
v  318.89023 285.28793 32.331814
v  -245.57384 213.81674 -289.44107
v  -15.32748 185.62282 -374.91614
v  -191.80171 114.25376 -417.21262
v  -307.03674 -94.384315 -164.51028
v  -383.04053 62.698811 -267.78989
v  -93.976822 -113.68443 -340.04446
v  -124.62641 -220.52467 -242.85829
v  67.065201 -261.44699 -278.45877
v  -23.980574 -361.18378 -45.572147
v  505.96075 -203.12941 -42.075249
v  513.88275 -204.62961 -33.710609
v  357.46033 -283.19336 -92.320786
v  244.18187 -153.55603 -318.48041
v  415.48648 -185.9962 -137.60455
v  408.74692 -201.08002 -128.60764
v  416.34946 -213.18623 -110.07485
v  417.94501 -217.11099 -104.82225
v  422.44757 -222.0025 -96.090233
v  505.64786 -203.30688 -42.172466
v  146.104 135.36638 -291.10153
v  465.63553 82.298508 -170.4516
v  465.50421 79.335327 -172.1087
v  41.912109 -23.251793 -425.18338
v  -46.792934 -119.71885 -383.55054
v  457.39526 65.279037 -177.9073
v  395.18011 -100.67914 -185.62097
v  383.67828 -114.44285 -192.56534
v  390.44336 -133.20973 -179.71854
v  435.16269 33.834461 -189.75169
v  429.31635 14.292555 -189.18912
v  401.40457 -88.91851 -183.2695
v  512.99371 -198.44373 -36.612225
v  113.05071 -297.1727 -267.8475
v  16.101339 -395.27344 -54.728497
v  198.90504 -404.30399 161.4142
v  480.71808 -307.63092 127.77802
v  232.00731 200.60585 -234.70473
v  394.66867 153.51491 -173.0791
v  466.66583 86.804276 -168.16063
v  466.40033 84.289589 -169.52449
v  205.38962 288.99118 -156.35803
v  518.1123 -193.58607 -25.822395
v  355.85181 -326.36649 -102.11962
v  -138.40808 -328.04193 43.865215
v  -339.65851 -121.41837 -135.23978
v  -432.51724 35.571808 4.5789948
v  534.6297 -153.9556 41.05645
v  547.96454 -120.63048 81.3255
v  548.51239 -121.13268 102.27989
v  549.13635 -119.57283 104.16084
v  555.86646 -101.27219 109.2058
v  561.80518 -84.747849 109.78228
v  522.45081 -184.58788 6.3001394
v  529.24133 -166.59074 16.214888
v  530.65826 -162.86516 18.589684
v  -208.94456 165.81172 359.51294
v  -232.79555 174.74429 390.23294
v  -168.61319 360.38583 82.131454
v  -223.36571 -266.35797 -144.87538
v  -353.88623 212.80763 85.536125
v  22.680609 307.14636 260.25818
v  37.148182 133.82991 413.00449
v  438.8255 110.40929 -110.35779
v  450.21423 101.30739 -149.10738
v  511.77658 118.63855 73.234108
v  509.98419 122.6497 67.379372
v  101.43678 -89.688744 445.11337
v  -13.958088 -290.53702 403.57846
v  -184.18288 -337.15738 56.754452
v  -188.36253 120.19285 394.35834
v  -158.09088 130.55508 396.79401
v  -137.01616 144.51413 398.43652
v  -128.23631 146.4173 399.15164
v  -115.64423 144.55101 400.21353
v  -97.579628 138.95412 401.75995
v  -53.595276 132.65662 405.46741
v  7.033834 108.69929 410.69836
v  -250.56691 -106.27028 390.97156
v  -209.44308 -71.952171 394.12079
v  -226.51228 -24.603254 392.32782
v  -229.15125 38.095455 391.61383
v  -222.80684 72.993675 391.86618
v  -217.17393 104.09995 392.08926
v  -180.54443 -102.97179 401.74173
v  -205.14217 -84.582855 396.04105
v  19.775723 89.425194 414.60757
v  32.835491 48.971851 420.64444
v  37.304203 41.116257 422.12296
v  43.056015 29.420736 424.1813
v  36.765701 5.9720273 425.48471
v  34.001431 -10.950819 426.7066
v  13.238728 -59.02887 428.13287
v  -2.7671936 -80.856857 427.73801
v  -9.9690723 -86.293968 427.13028
v  -30.252394 -95.892113 424.85825
v  13.931447 105.50372 412.10461
v  -264.83423 -260.34787 176.18062
v  -362.24142 3.5255954 125.45958
v  -300.37625 -207.18803 34.287914
v  -166.6731 -114.19684 402.42944
v  -30.575148 -96.043739 424.79196
v  -48.689606 -113.56731 419.97662
v  -94.908066 -141.08954 409.78268
v  -135.63394 -138.00624 404.12744
v  458.86798 133.2476 -54.836334
v  344.05429 212.08325 -135.64522
v  502.30618 133.24681 10.405086
v  492.40961 137.59021 0.58948702
v  460.42902 134.77733 -50.713642
v  457.47629 123.00743 -90.162086
v  271.84802 -212.42978 -304.22412
v  -75.394073 -118.37849 450.67545
v  -152.9223 -113.29229 438.67322
v  -207.18419 51.049171 492.08484
v  -235.52628 69.549606 429.30087
v  -236.16156 -34.52483 468.26443
v  -163.49675 -36.076626 518.3894
v  -223.14441 102.48332 409.66101
v  -124.19862 35.507088 521.08057
v  -60.097729 12.663611 495.36096
v  -2.0289302 92.997475 443.19443
v  -137.1618 136.74889 448.18182
v  40.657104 26.895899 434.21451
v  -70.470695 -109.17596 460.30267
v  -139.7473 -39.358856 525.78552
v  -48.477657 4.8526196 505.78976
v  -133.94751 145.38779 407.16687
v  -188.96082 102.80304 447.91156
v  0.20064712 78.447395 464.92194
v  517.10242 30.722301 -214.10176
v  469.88721 -26.105118 -203.55522
v  448.86618 118.2706 -99.705933
v  474.72092 108.03996 -158.24458
v  553.76611 -57.65242 -183.02356
v  560.80853 96.262238 -151.92108
v  537.91382 152.02248 -55.333687
v  610.93597 118.86546 -95.753136
v  609.09393 -41.102482 -96.618912
v  623.0481 25.529676 -160.54671
v  616.42969 44.331734 -2.3329048
v  592.55243 7.1882086 92.464127
v  565.4491 -111.91733 71.227943
v  618.62476 -22.560425 9.680542
v  536.51117 77.955215 128.71109
v  502.95163 132.05208 13.722592
v  588.63464 118.79817 27.177807
v  619.9137 64.29129 19.366703
v  586.39496 0.7075265 118.217
v  566.52148 -112.30096 95.798782
v  539.1167 60.951702 154.1024
v  557.67688 -149.80331 14.561948
v  614.25763 -63.39851 -102.83772
v  556.43793 -79.867943 -189.94952
v  622.88007 -83.045181 -19.870367
v  470.39218 -44.812553 -216.99507
v  460.52316 92.303093 -163.32629
v  566.96301 -163.66447 -0.23413002
v  424.64496 -219.67384 -112.22636
v  509.05609 -118.09107 -164.28722
v  571.85205 -137.57846 -76.713501
v  531.33942 -194.02519 -59.101021

# 0 UV coordinates

# 229 vertex normals
vn 0.24283022 0.95067775 0.19299063
vn 0.37411883 0.30986488 0.87408173
vn 0.39465335 0.89222133 -0.21952182
vn -0.58352494 0.75060397 0.30998778
vn 0.20667252 -0.76242054 0.61318946
vn 0.87133062 0.28087097 0.40236124
vn 0.26145557 0.90835273 -0.32639891
vn -0.89845878 0.31925082 0.30141476
vn 0.36833188 -0.77276915 0.51687485
vn 0.31819516 0.76612014 0.55840111
vn -0.14807205 0.74892586 -0.64589846
vn -0.52700311 -0.63001323 -0.57039553
vn -0.26662332 -0.84386092 -0.46562931
vn 0.52656472 -0.59654582 -0.60569191
vn 0.38029394 0.43852612 -0.81429207
vn 0.13455853 -0.49436009 -0.85877937
vn 0.49948251 0.068126336 -0.8636412
vn 0.68687212 -0.22538278 -0.69094807
vn 0.68687314 -0.2253845 -0.69094652
vn 0.12776843 -0.52246672 -0.84303242
vn -0.53257298 -0.66739696 -0.52052599
vn 0.33982781 -0.73018682 0.59274304
vn -0.50615978 -0.73779261 -0.44661433
vn -0.26837209 -0.60494727 -0.74967676
vn -0.59406286 -0.44134465 -0.6725356
vn -0.62781966 -0.47753441 -0.6146571
vn -0.46790332 -0.4569228 -0.75649726
vn -0.61821342 0.47235659 -0.62824476
vn -0.17801426 -0.24735546 -0.95243174
vn 0.12260392 0.26384476 -0.95674157
vn 0.513955 0.3312692 -0.79127169
vn 0.39106634 0.30058935 -0.86989266
vn -0.010179041 0.66157913 -0.74980634
vn 0.9119826 -0.059331805 -0.40591583
vn 0.49921149 -0.84230024 -0.20326887
vn 0.87374043 0.045074664 -0.48429951
vn -0.48951241 -0.80848342 -0.32669887
vn -0.74523765 0.13108695 -0.65378672
vn -0.87712562 -0.47423914 -0.07581424
vn -0.97860903 0.19239274 -0.072865702
vn -0.66854233 0.53399199 -0.5175941
vn -0.16408399 0.71626902 -0.67825896
vn 0.24976909 0.8345598 -0.49104515
vn 0.49883199 0.65417731 -0.56852323
vn 0.94092977 -0.33702141 -0.032676518
vn 0.92984855 -0.23228043 0.28535503
vn 0.46778116 -0.55873841 0.68483013
vn -0.23756868 -0.96978885 0.055414788
vn -0.3223502 -0.90784585 0.26815373
vn -0.90412045 -0.27671683 -0.32556733
vn -0.54349446 -0.35146239 -0.76229137
vn -0.69639337 0.5537951 -0.45645079
vn 0.9457401 0.24988088 0.20768972
vn -0.46216854 0.7683785 -0.44271299
vn -0.37405381 0.92547923 -0.059765369
vn -0.10104286 0.99404418 -0.040822547
vn 0.67842609 0.73417449 0.026944362
vn -0.23263107 0.95993948 0.15620203
vn 0.94367969 0.32402474 -0.066907711
vn 0.40795931 0.557935 0.72268772
vn 0.25105587 0.36286739 0.89738405
vn 0.27445984 -0.29435253 0.91543895
vn 0.25453728 -0.30963281 0.91615415
vn 0.84567225 0.35520712 0.39832956
vn 0.51248306 0.79929668 -0.31382453
vn 0.17314011 -0.98397154 0.042691078
vn 0.12792121 0.98657119 0.10155511
vn 0.089902073 -0.93401998 -0.345723
vn 0.31844157 0.76642442 0.55784267
vn 0.43798506 0.70861453 0.55320394
vn 0.27984697 0.60058701 0.74898648
vn -0.5777812 0.74391979 0.33578596
vn 0.53354543 -0.44572759 0.71878803
vn 0.023273747 0.97235817 0.23233142
vn 0.037296794 0.66247422 0.74815577
vn -0.082872592 0.007859556 0.9965291
vn -0.15574989 0.096424952 0.98307902
vn -0.15574987 0.096424751 0.9830789
vn -0.93895018 -0.32478851 0.11351181
vn -0.73810232 -0.67138857 -0.066650867
vn -0.73416561 -0.67250592 -0.093470059
vn -0.7774806 -0.61510235 -0.13104582
vn -0.38089767 -0.87310433 0.30431196
vn -0.87547803 -0.48153579 -0.040762264
vn -0.83240473 -0.40708512 0.37601051
vn -0.8409704 0.13359715 0.52432865
vn -0.14542887 -0.1195455 0.98211986
vn -0.54443985 -0.66402793 0.51249611
vn -0.91947621 -0.287972 0.26764846
vn -0.91128856 0.058701098 0.40756282
vn -0.91902387 0.10896014 0.37884405
vn -0.20290688 0.85682774 0.4739989
vn 0.69976008 0.54154819 -0.46589836
vn 0.41862741 0.71755826 -0.55665177
vn 0.65677762 0.7169556 -0.23370476
vn 0.45644107 0.66322052 -0.59312749
vn 0.49718127 0.8202076 -0.28296676
vn 0.481298 0.82768339 -0.28860429
vn 0.28745759 -0.7782892 -0.55824202
vn 0.13645662 -0.92200565 -0.36233285
vn 0.31311733 -0.94514591 -0.093041323
vn 0.17054355 -0.96788913 -0.18467686
vn 0.92735219 0.22369625 -0.29996303
vn -0.41889429 -0.86681074 0.27049327
vn -0.050657164 -0.29061389 -0.95549852
vn -0.13696347 -0.8367995 0.5301016
vn -0.87765002 0.17273994 0.44709206
vn -0.15206574 -0.71993417 0.67717856
vn -0.93744838 0.17192933 -0.30270591
vn 0.43543997 0.24732538 0.86557633
vn 0.1272034 0.97969073 0.15500085
vn 0.76274604 0.36079475 0.53669906
vn 0.2861504 0.82905781 0.4803969
vn 0.21924122 0.58844405 0.77824605
vn 0.76998383 0.33006582 0.54605997
vn 0.95469934 -0.2468728 0.1661416
vn -0.21008649 -0.75801635 0.61747456
vn 0.26394314 0.92625225 0.26905563
vn -0.1778885 0.55990887 0.80923271
vn 0.30225623 -0.20096351 0.93180186
vn 0.82868493 0.46291387 0.31462985
vn -0.15765597 0.66716182 0.72803831
vn -0.3048631 0.13190369 0.94321781
vn -0.56796938 -0.036550101 0.82223785
vn -0.42766023 -0.67697501 0.5990088
vn 0.58227235 -0.71049786 0.39516047
vn 0.45141667 -0.85394412 0.25884861
vn -0.50063568 0.7606439 0.41326112
vn -0.62710857 0.60048044 0.4961431
vn -0.99037659 -0.043181777 -0.13148899
vn -0.92631537 -0.34007439 -0.16213928
vn -0.61622059 -0.74602991 0.25241151
vn -0.59836388 -0.76250952 0.24604839
vn -0.93735576 0.17259721 -0.30261248
vn -0.33079565 0.89864624 0.288113
vn -0.20991357 0.97742468 -0.024029622
vn -0.55478567 0.82435089 0.11250991
vn -0.48096111 0.87279284 -0.083120607
vn 0.62255532 0.022609467 0.78224909
vn 0.64295149 -0.25625044 0.72176796
vn 0.37852767 -0.40501025 0.83227611
vn 0.52780223 -0.40057266 0.74897689
vn -0.40202841 0.66146016 0.63312209
vn 0.40256634 -0.9079417 0.11654246
vn -0.28240973 0.056920324 -0.95760369
vn -0.35807785 0.88003725 -0.31195313
vn 0.12679005 -0.28184706 -0.95104504
vn 0.13495666 0.87163556 -0.47120923
vn 0.98692167 -0.14997265 0.059108514
vn 0.88681114 -0.26882213 0.37589991
vn 0.43544 0.24732609 0.86557597
vn 0.1272032 0.97969079 0.155001
vn 0.76274586 0.36079386 0.53669965
vn 0.28615084 0.8290574 0.48039734
vn 0.21924335 0.58844447 0.77824509
vn 0.76998383 0.33006683 0.54605949
vn 0.97510171 -0.21047941 0.069821008
vn 0.94684434 -0.29772851 0.12183404
vn 0.95864242 0.08048664 0.2729955
vn 0.99562067 0.01613408 -0.092082463
vn 0.99270082 -0.058805808 -0.10529461
vn 0.99362075 0.1090861 0.028600976
vn 0.51301748 0.53342861 -0.67250812
vn 0.86609465 0.47445896 0.1573808
vn 0.44932643 0.88959634 0.082000859
vn 0.095386796 0.94232959 0.32080573
vn 0.82271034 0.49277598 0.28340715
vn 0.89272189 -0.42148989 0.15935419
vn 0.77147287 0.30129728 -0.56040126
vn 0.75780398 -0.52734458 -0.38424069
vn 0.44235909 -0.1286062 -0.88756907
vn 0.41783708 0.46299231 -0.78169709
vn 0.15344363 0.87110054 -0.46651796
vn -0.22451228 0.93827081 -0.26313886
vn -0.21209128 0.97406739 0.078803077
vn 0.58227426 -0.71049494 0.39516258
vn 0.45141688 -0.85394388 0.25884867
vn 0.98389685 0.15234314 -0.093480065
vn 0.39649305 0.43350583 -0.80923784
vn 0.14224719 0.6297009 -0.76370317
vn -0.23260991 0.48253736 -0.84442312
vn -0.41900584 0.59851241 -0.68280071
vn 0.39250788 -0.59586996 0.70062596
vn -0.6081056 0.45229313 -0.65240967
vn 0.66248083 -0.29104927 0.69022429
vn -0.30807245 0.028773187 -0.95092773
vn -0.63574755 -0.73925173 -0.22210754
vn -0.63311082 -0.6998893 -0.33064416
vn 0.58608353 -0.59293938 -0.5522036
vn 0.77832538 -0.60777336 -0.15754761
vn 0.79499179 -0.5878613 -0.14969063
vn 0.8141883 -0.54029411 -0.21255535
vn 0.44023457 -0.87828577 0.18656789
vn 0.73688143 -0.55644262 -0.38389745
vn 0.39355445 -0.79628479 -0.45939681
vn 0.022147102 -0.57604998 -0.81711441
vn -0.52792633 -0.82746387 -0.19130461
vn 0.27926633 -0.95501411 -0.099791832
vn 0.45250434 -0.67479765 -0.58299917
vn 0.17672987 -0.56124157 -0.80856329
vn 0.17470323 -0.51252806 -0.84071028
vn 0.62255478 0.022608235 0.78224957
vn 0.64295101 -0.25624976 0.72176862
vn 0.52780098 -0.40057275 0.74897772
vn -0.69470215 0.49429095 0.52255648
vn 0.43806037 -0.89891267 -0.0076919892
vn 0.67842484 0.73417568 0.026940614
vn 0.7672112 -0.1284416 -0.62840241
vn 0.76721269 -0.12843877 -0.62840128
vn 0.67842603 0.73417467 0.026938442
vn 0.94367915 0.32402459 -0.066916443
vn 0.94368076 0.3240214 -0.066907808
vn 0.90505272 0.41552812 -0.090642184
vn 0.94368094 0.32402158 -0.06690532
vn 0.98536688 -0.16424268 -0.045569826
vn 0.1255434 0.96875793 0.21388538
vn 0.12554415 0.96875751 0.21388645
vn 0.76846409 0.50991273 0.38659003
vn 0.81736863 0.51395637 0.26030239
vn 0.82910228 0.47501394 0.29487485
vn 0.41220444 -0.90180594 0.12974416
vn 0.51793826 -0.73497379 0.43766832
vn 0.58062196 -0.7160359 0.3875187
vn 0.36902705 -0.55141205 0.74817365
vn 0.36902681 -0.55141288 0.74817312
vn -0.60810471 0.45229179 -0.65241158
vn -0.6468485 0.69685632 -0.30980349
vn -0.57143009 0.65356743 0.49630359
vn -0.49818921 0.69594729 0.51717007

# Mesh 'Icosphere.002' with 229 faces
g Icosphere.002
usemtl Material.002
f  1//1 2//1 3//1
f  4//2 5//2 6//2
f  1//3 3//3 7//3
f  8//4 9//4 10//4
f  11//5 12//5 13//5
f  14//6 15//6 16//6 17//6 18//6 19//6 20//6 21//6 22//6 23//6
f  1//7 7//7 24//7
f  8//8 10//8 25//8
f  11//9 13//9 26//9
f  3//10 14//10 27//10 28//10
f  29//11 30//11 31//11
f  32//12 33//12 34//12
f  35//13 36//13 37//13
f  38//14 39//14 40//14 41//14 42//14 43//14 44//14 45//14 46//14 47//14
f  48//15 49//15 50//15 51//15
f  51//16 41//16 52//16
f  51//17 50//17 53//17 41//17
f  54//18 55//18 56//18 42//18 41//18 53//18 57//18 58//18 59//18
f  39//19 38//19 60//19
f  52//20 41//20 36//20
f  37//21 36//21 61//21 62//21
f  26//22 13//22 63//22 64//22
f  52//23 36//23 34//23
f  34//24 36//24 35//24
f  35//25 32//25 34//25
f  34//26 31//26 52//26
f  34//27 33//27 31//27
f  33//28 29//28 31//28
f  31//29 51//29 52//29
f  31//30 30//30 51//30
f  30//31 48//31 51//31
f  65//32 66//32 67//32 68//32 49//32 48//32
f  48//33 7//33 69//33 65//33
f  39//34 60//34 70//34
f  40//35 39//35 26//35
f  40//36 26//36 64//36 71//36
f  72//37 35//37 37//37
f  25//38 32//38 73//38 74//38
f  25//39 33//39 32//39
f  25//40 10//40 33//40
f  10//41 29//41 33//41
f  24//42 30//42 29//42
f  24//43 7//43 30//43
f  7//44 48//44 30//44
f  75//45 76//45 77//45 78//45 79//45 80//45 26//45 39//45 70//45 81//45 82//45 83//45
f  80//46 16//46 15//46 26//46
f  15//47 11//47 26//47
f  13//48 72//48 37//48
f  13//49 12//49 72//49
f  9//50 84//50 85//50 86//50
f  32//51 35//51 87//51 73//51
f  8//52 25//52 74//52 88//52
f  4//53 2//53 89//53 90//53
f  10//54 24//54 29//54
f  10//55 9//55 24//55
f  9//56 1//56 24//56
f  66//57 91//57 92//57
f  7//58 3//58 28//58 69//58
f  14//59 93//59 94//59
f  6//60 15//60 14//60
f  6//61 5//61 15//61
f  5//62 11//62 15//62
f  5//63 12//63 11//63
f  5//64 4//64 90//64 95//64
f  2//65 9//65 86//65 89//65
f  72//66 12//66 96//66 97//66
f  84//67 8//67 88//67 85//67
f  35//68 72//68 97//68 87//68
f  3//69 6//69 14//69
f  2//70 6//70 3//70
f  2//71 4//71 6//71
f  84//72 9//72 8//72
f  12//73 5//73 95//73 96//73
f  2//74 1//74 9//74
f  89//75 85//75 90//75
f  98//76 99//76 100//76 101//76 102//76 103//76 104//76 105//76 90//76 85//76 106//76 107//76 108//76 109//76 110//76 111//76
f  107//77 106//77 112//77 113//77
f  114//78 115//78 116//78 117//78 118//78 119//78 120//78 121//78 122//78 123//78 95//78 90//78 105//78 124//78
f  125//79 126//79 127//79
f  125//80 127//80 97//80
f  97//81 127//81 87//81
f  127//82 73//82 87//82
f  96//83 125//83 97//83
f  127//84 74//84 73//84
f  127//85 126//85 74//85
f  126//86 88//86 74//86
f  128//87 112//87 106//87 96//87 95//87 123//87 129//87 130//87 131//87 132//87
f  125//88 96//88 106//88
f  106//89 126//89 125//89
f  85//90 126//90 106//90
f  85//91 88//91 126//91
f  85//92 89//92 86//92
f  133//93 134//93 27//93 135//93 136//93 137//93
f  134//94 66//94 65//94
f  66//95 134//95 133//95 138//95
f  69//96 134//96 65//96
f  69//97 28//97 134//97
f  28//98 27//98 134//98
f  139//99 71//99 61//99
f  61//100 71//100 62//100
f  64//101 63//101 71//101
f  63//102 62//102 71//102
f  41//103 40//103 71//103 139//103
f  13//104 37//104 62//104 63//104
f  36//105 41//105 139//105 61//105
f  140//106 141//106 132//106 131//106
f  142//107 143//107 144//107
f  141//108 140//108 145//108
f  146//109 111//109 110//109 143//109
f  147//110 148//110 149//110
f  103//111 150//111 104//111
f  149//112 114//112 124//112
f  105//113 104//113 150//113 149//113 124//113
f  150//114 147//114 149//114
f  149//115 115//115 114//115
f  151//116 118//116 117//116
f  145//117 140//117 152//117 153//117
f  150//118 103//118 102//118
f  142//119 147//119 150//119
f  145//120 148//120 147//120
f  151//121 117//121 116//121
f  148//122 145//122 153//122 154//122
f  142//123 145//123 147//123
f  142//124 144//124 145//124
f  144//125 141//125 145//125
f  130//126 129//126 140//126
f  140//127 131//127 130//127
f  142//128 150//128 155//128 156//128
f  143//129 142//129 156//129 146//129
f  108//130 144//130 143//130 109//130
f  144//131 108//131 107//131 113//131
f  112//132 128//132 141//132 144//132 113//132
f  141//133 128//133 132//133
f  110//134 109//134 143//134
f  146//135 156//135 99//135 98//135
f  155//136 101//136 100//136
f  99//137 156//137 155//137 100//137
f  111//138 146//138 98//138
f  157//139 154//139 151//139
f  119//140 151//140 154//140 120//140
f  153//141 152//141 154//141
f  121//142 120//142 154//142 152//142
f  149//143 148//143 154//143 157//143
f  123//144 152//144 129//144
f  57//145 158//145 159//145 58//145
f  92//146 91//146 160//146 161//146
f  158//147 162//147 159//147
f  163//148 164//148 165//148
f  166//149 167//149 168//149
f  169//150 170//150 171//150
f  21//151 20//151 172//151
f  173//152 94//152 174//152
f  174//153 172//153 175//153
f  23//154 22//154 172//154 174//154 94//154 93//154
f  22//155 21//155 172//155
f  172//156 169//156 175//156
f  170//157 169//157 176//157 177//157
f  169//158 168//158 175//158
f  169//159 171//159 168//159
f  171//160 166//160 168//160
f  168//161 165//161 175//161
f  168//162 167//162 165//162
f  165//163 167//163 163//163
f  165//164 174//164 175//164
f  164//165 174//165 165//165
f  173//166 174//166 164//166 136//166 135//166
f  169//167 172//167 178//167 176//167
f  170//168 179//168 171//168
f  162//169 166//169 180//169 181//169
f  167//170 166//170 162//170
f  158//171 167//171 162//171
f  163//172 167//172 158//172
f  161//173 164//173 163//173
f  133//174 137//174 164//174 161//174 160//174 138//174
f  136//175 164//175 137//175
f  170//176 76//176 75//176 179//176
f  83//177 179//177 75//177
f  166//178 171//178 182//178 180//178
f  159//179 162//179 181//179 183//179
f  161//180 163//180 158//180
f  67//181 184//181 161//181 158//181 57//181 53//181 50//181 49//181 68//181
f  92//182 161//182 184//182
f  179//183 83//183 82//183
f  183//184 54//184 59//184
f  171//185 179//185 185//185 182//185
f  159//186 59//186 58//186
f  43//187 186//187 44//187
f  44//188 186//188 45//188
f  187//189 188//189 189//189
f  185//190 189//190 188//190
f  182//191 185//191 188//191
f  182//192 188//192 180//192
f  47//193 189//193 185//193 81//193 70//193 60//193 38//193
f  180//194 188//194 181//194
f  181//195 188//195 187//195
f  183//196 181//196 187//196
f  45//197 186//197 46//197
f  47//198 46//198 186//198 189//198
f  187//199 189//199 186//199
f  42//200 56//200 187//200 186//200 43//200
f  56//201 55//201 183//201 187//201
f  17//202 176//202 178//202 18//202
f  177//203 176//203 17//203 16//203 80//203 79//203
f  79//204 78//204 177//204
f  19//205 178//205 20//205
f  177//206 78//206 77//206 76//206 170//206
f  184//207 67//207 66//207
f  66//208 138//208 160//208
f  66//209 160//209 91//209
f  92//210 184//210 66//210
f  135//211 27//211 173//211
f  27//212 14//212 94//212
f  14//213 23//213 93//213
f  94//214 173//214 27//214
f  151//215 119//215 118//215
f  102//216 101//216 155//216
f  155//217 150//217 102//217
f  116//218 115//218 151//218
f  115//219 149//219 157//219
f  157//220 151//220 115//220
f  123//221 122//221 152//221
f  122//222 121//222 152//222
f  152//223 140//223 129//223
f  81//224 185//224 82//224
f  185//225 179//225 82//225
f  59//226 159//226 183//226
f  183//227 55//227 54//227
f  18//228 178//228 19//228
f  178//229 172//229 20//229

