# File produced by Open Asset Import Library (http://www.assimp.sf.net)
# (assimp v5.0.1588609223)

mtllib result.mtl

# 172 vertex positions
v  -12230.729 5301.541 -11904.631
v  -15526.801 -2400.9595 -8562.7959
v  -16194.313 6614.7905 -3852.6367
v  2241.4949 13741.279 -8951.5869
v  5076.4448 14594.725 -2556.418
v  4598.9897 13697.992 -2225.093
v  1771.8107 12909.529 -8472.5674
v  -1815.859 -8323.8516 -14403.981
v  1925.6586 -468.20969 -16627.242
v  6635.1289 -8213.8457 -12052.411
v  -14613.678 -9203.6523 -2843.625
v  -9404.1035 -10449.857 -9950.9434
v  -7658.2686 -14799.162 -1026.516
v  -11314.253 13366.742 1873.4291
v  -2615.7085 15136.597 6857.6357
v  -2452.0859 15934.042 7129.5679
v  -11630.05 14237.589 2128.6362
v  5627.2002 8140.7632 -12842.261
v  5023.0283 7577.9419 -12163.97
v  -155.98878 -14195.73 -7816.0186
v  -12718.083 -9471.5938 6043.002
v  -3898.4553 16699.275 -1893.866
v  -3936.9705 17551.021 -1687.6129
v  9445.0596 3890.8005 -11384.923
v  8728.3135 3479.1699 -10707.646
v  -2032.3265 -8720.4346 -15308.29
v  1863.7977 -401.66727 -17434.072
v  -3630.2329 -13364.922 8210.1484
v  -7877.0713 -15474.761 -1090.252
v  -3661.3159 -14033.832 8594.4355
v  8875.1582 10592.221 -7915.0957
v  8323.7305 9879.2148 -7341.1455
v  5292.0645 2661.228 14297.592
v  12706.7 3162.9651 7407.9438
v  13624.335 3609.8916 7975.3564
v  5728.9697 3035.2583 15099.951
v  9501.6318 -4469.2588 10914.85
v  14822.63 2649.9668 -2516.1804
v  15731.934 2881.4189 -2656.9993
v  -868.24579 9217.3701 13387.595
v  -757.67657 9773.21 14172.211
v  1405.5229 -6667.1479 13936.713
v  8038.8159 -8401.6572 -9566.165
v  12682.419 -6261.3721 -5064.3936
v  11765.805 -5759.3398 -4841.5649
v  7299.0776 -7793.2222 -9092.3906
v  -9768.3789 -10892.26 -10521.704
v  -329.55713 -14973.576 -8265.0205
v  -15811.937 6144.4624 4941.6948
v  -17488.738 -1810.0155 1454.0863
v  -18281.986 -1992.28 1854.6119
v  -16314.668 6444.0942 5390.7705
v  1016.6933 -15772.033 803.06854
v  1115.5521 -16561.555 991.32385
v  -16046.275 -2531.6333 -9100.96
v  -16816.02 7030.4375 -4268.4629
v  -12675.431 5568.3711 -12544.052
v  13499.382 -5790.4839 2746.2302
v  10621.037 1319.4913 -11738.973
v  9870.1006 10334.101 -7090.7974
v  10819.516 10725.745 -7473.3062
v  11434.938 1289.6388 -12173.776
v  12880.716 -5462.2388 -6146.0894
v  13795.177 -5491.2612 -6724.5864
v  7570.4253 -8337.8691 -12641.455
v  4957.5059 15604.892 -140.15503
v  5230.1353 16494.795 198.04077
v  -9541.1113 8982.3506 10902.751
v  -4642.2456 1182.8594 15489.353
v  -13429.41 -413.49368 10611.196
v  -13270.057 -9846.5186 6484.4648
v  1448.72 -7150.248 14672.548
v  9907.5645 -4839.7744 11335.247
v  8457.3398 -12495.621 -3021.0464
v  8947.8428 -13146.235 -2933.5862
v  -15205.029 -6982.3511 -3073.7822
v  -17344.443 -1844.4561 -88.993073
v  -16301.164 -1723.2537 107.84912
v  -14199.643 -6666.584 -2896.6965
v  11752.498 10016.15 1601.5052
v  12593.11 10570.659 1824.1089
v  -14044.479 -553.62286 11040.616
v  -4930.8149 974.20758 16245.853
v  -10166.562 9213.7227 11427.265
v  4766.0757 7674.418 -13843.18
v  9389.2393 -11378.813 -3634.311
v  8571.251 -10765.539 -3323.4116
v  781.966 14185.356 -9259.1982
v  -9181.3848 12799.743 -8011.1206
v  -15974.5 -2287.2458 -7077.1851
v  -14931.769 -2160.7085 -6880.7891
v  14270.247 -121.87457 -2315.561
v  13588.729 -5785.4741 1174.5857
v  12596.097 -5406.9883 1289.9109
v  13230.908 86.440613 -2180.4702
v  13956.476 -6228.9385 3026.104
v  4824.0034 8013.147 -14846.074
v  665.83807 14756.146 -9882.2051
v  -9565.876 13290.524 -8436.0732
v  4969.3452 5119.4775 14172.523
v  6231.5605 11702.866 10183.228
v  5878.2617 11157.215 9667.9668
v  4842.1113 4908.3247 13578.008
v  7135.1538 11852.033 9477.9072
v  3406.3088 -7573.5732 13183.955
v  6666.1948 -10830.564 8655.6797
v  6248.9624 -10406.979 8187.021
v  3019.3147 -7090.522 12689.369
v  8736.3906 10696.659 8224.2627
v  12661.745 5605.6182 7294.4834
v  12042.627 5248.313 6857.8691
v  8105.1123 10245.646 7864.1953
v  8429.9795 -6140.2827 11169.169
v  8075.9346 -5767.8389 10636.604
v  12124.948 9923.4102 3419.6946
v  11445.439 9466.5498 3159.1338
v  -4342.8486 7972.6724 -15774.217
v  -8382.833 -1931.4497 -16103.831
v  -7861.5122 -7198.5781 13525.047
v  -900.49591 14619.08 8364.0273
v  301.1752 10151.995 13624.907
v  152.98175 9595.9912 13015.025
v  -1096.8224 14057.186 7951.7134
v  6890.6816 -12604.026 7236.3711
v  -8623.3545 -6384.0815 13277.648
v  -6477.2612 -251.61261 15133.387
v  -6067.4805 -251.12071 14503.314
v  -8172.5991 -6221.2002 12799.341
v  -6040.3535 -15488.889 414.19754
v  1234.4476 -16359.15 2005.764
v  1152.6398 -15555.021 1836.293
v  -6006.9092 -14753.914 165.83023
v  -2881.239 -7907.627 -15339.006
v  -8416.7041 -9454.4111 -11945.248
v  -8039.1943 -9128.4824 -11185.312
v  -2574.9438 -7603.4463 -14710.118
v  -5052.1948 7182.8447 -15815.422
v  616.42322 -448.38672 -17315.719
v  621.14716 -489.47397 -16604.43
v  -4865.8379 7015.6045 -15071.3
v  14995.461 1591.9932 -4464.792
v  13775.274 -3734.0171 -6834.6709
v  13003.776 -3598.4729 -6607.3135
v  14165.595 1510.4374 -4176.5811
v  -11671.766 5778.3813 -12904.699
v  -9362.2842 11430.607 -9920.0459
v  -9046.5664 11099.344 -9425.5586
v  -11447.158 5484.7744 -12282.492
v  12339.096 514.87946 -10285.487
v  -7276.9121 -1662.4393 -16495.211
v  -12681.229 -8342.6045 8004.2212
v  7645.2354 -13572.148 -1174.2241
v  -2927.7122 -14494.751 7548.9668
v  6171.4805 -13210.521 6520.0938
v  -13188.852 -1455.8491 11626.689
v  11634.607 515.20331 -9967.5723
v  -7090.7866 -1683.21 -15713.438
v  7346.8926 -12836.57 -1253.7964
v  5779.6743 -12628.318 6301.9717
v  -2976.0298 -13819.641 7392.6226
v  -12839.79 -1290.8328 10961.259
v  -12141.19 -7980.1299 7543.6675
v  -3109.1311 1357.9679 15459.377
v  -487.76303 6933.8896 13858.331
v  3805.7327 2407.7639 14628.792
v  1074.4395 -4084.6064 14225.212
v  -16290.001 4015.0935 -3752.3789
v  -572.95099 6677.1074 12824.563
v  -3227.6704 1299.7983 14398.983
v  3687.7747 2345.8813 13568.543
v  928.98254 -3958.0784 13174.164
v  -15243.608 3957.3289 -3543.5867

# 0 UV coordinates

# 210 vertex normals
vn -0.87184471 0.17453265 -0.45763019
vn 0.78170741 -0.55847174 -0.2775659
vn 0.25321251 -0.37319946 -0.89252758
vn -0.5589276 -0.78321224 -0.2723574
vn -0.41766924 -0.30817506 0.85473996
vn 0.74174869 -0.01472425 0.67051613
vn 0.19827989 -0.70634729 -0.67952824
vn -0.64062649 -0.75937968 0.11375511
vn -0.48991242 0.13015155 -0.86200136
vn 0.34432882 0.57050067 0.74563164
vn 0.89614087 -0.43955973 -0.060982171
vn -0.90065163 0.25182247 0.35413575
vn -0.75889975 0.12572697 -0.63895541
vn 0.29869497 -0.91945779 0.25569281
vn 0.67786419 0.052291609 0.73332524
vn 0.32020566 -0.93939167 0.12252212
vn -0.6460858 -0.54007983 0.53933936
vn 0.38932785 -0.19701725 0.89978218
vn -0.24533466 -0.75071514 0.61338216
vn -0.90234292 0.28925496 0.31954491
vn 0.96573365 -0.022818012 -0.25853041
vn -0.4661136 0.43399996 -0.77096188
vn 0.98862284 -0.022378733 -0.14874156
vn -0.52307367 -0.51192468 0.68141532
vn -0.47469985 -0.87586308 -0.086740293
vn -0.78167456 0.2418374 -0.57489085
vn 0.87635338 -0.15911971 0.45462707
vn 0.97752923 -0.022579527 0.20958713
vn -0.45206067 0.37629232 -0.8087306
vn 0.3691985 -0.46310386 0.80574644
vn 0.12204741 -0.94065237 0.31666639
vn 0.22106813 0.26379064 -0.93890548
vn -0.26604375 0.35899192 0.89462042
vn -0.50231409 0.181641 0.84539169
vn -0.073056616 -0.59333998 -0.80162978
vn 0.0078979237 0.80594456 0.59193844
vn -0.43659484 -0.84047997 0.32090262
vn -0.32202965 -0.30347541 -0.89677179
vn 0.3010399 -0.92996722 -0.21103558
vn 0.4101702 -0.78927439 -0.45695341
vn 0.043565135 0.5237627 -0.85074943
vn 0.31989548 0.11841731 -0.94002354
vn -0.96875143 0.0026450981 0.24801967
vn -0.45604706 0.8823787 0.11588287
vn -0.21559858 0.69407755 0.68685782
vn -0.42315435 0.77962172 0.46166044
vn -0.67628151 0.60169822 0.42497349
vn -0.23061654 -0.60037345 -0.76574647
vn -0.23017868 0.96702325 0.10901361
vn -0.87933457 -0.44319612 0.17420654
vn 0.76713878 0.52453274 0.36927453
vn -0.63300377 0.51516342 0.57785201
vn 0.5763247 -0.26097295 0.77443081
vn -0.47649392 0.22982021 -0.84860843
vn 0.51025397 -0.18572956 -0.83972931
vn 0.46376222 0.13747576 -0.87522864
vn 0.6482597 0.75301123 -0.11284263
vn 0.6671955 0.7136786 0.2133379
vn 0.16313873 0.96077716 -0.2242613
vn -0.46797615 0.87075776 -0.1509276
vn -0.71074992 0.67668402 -0.19218016
vn -0.83429539 0.54740673 0.065550767
vn -0.98154402 0.18388569 0.052511524
vn -0.26750457 0.60639828 0.74881405
vn -0.24507421 -0.49218935 -0.83527738
vn -0.7432766 -0.48614171 -0.45957178
vn 0.031737532 0.89247227 -0.44998437
vn 0.57975149 0.24202116 -0.77801931
vn -0.17620498 0.89193994 -0.41640729
vn 0.6002878 0.7827059 0.16439575
vn 0.89217472 0.40706027 0.1957708
vn -0.0039855577 0.7015714 0.71258795
vn 0.94835073 -0.30911103 -0.071283601
vn -0.08911144 0.62238246 0.77762407
vn -0.29185614 0.93085015 0.21985902
vn 0.07889691 0.98280382 0.16694908
vn -0.93394196 0.29315311 0.20448337
vn 0.61244184 0.3532646 0.70719099
vn 0.73167139 0.68099308 0.030089825
vn 0.94306505 0.28750435 0.16724092
vn 0.56569636 0.77806324 0.27313972
vn 0.28100857 0.88012397 0.38264343
vn 0.29628456 0.39758563 -0.86841309
vn -0.037920207 -0.78112274 -0.62322485
vn 0.85918295 0.27193877 -0.43342134
vn 0.87780845 0.45152804 -0.15992075
vn 0.72507083 -0.26006895 -0.63768041
vn -0.62754685 0.46841651 0.62190914
vn 0.076227933 0.62117332 -0.77995712
vn -0.67271793 -0.034220427 -0.73910719
vn -0.7174328 0.52962911 -0.45252967
vn -0.90965509 0.038784672 0.41354957
vn -0.73371816 0.26656684 0.62497997
vn -0.79746038 -0.013964049 0.60320967
vn -0.092866734 -0.61940271 0.7795614
vn -0.11616388 -0.27598017 0.95411789
vn 0.96145558 -0.048892137 -0.27057859
vn 0.18367741 -0.72371829 0.66520256
vn -0.74723405 0.41511869 -0.51895845
vn 0.73154658 -0.51817071 0.44310138
vn 0.71604919 -0.67423248 0.18078776
vn 0.64847988 0.56612408 -0.5088982
vn -0.42825553 -0.68679804 0.58728653
vn -0.18546027 0.2520209 0.94978404
vn 0.38251069 -0.8299045 0.40613312
vn -0.85237408 -0.28575379 0.43795338
vn -0.082862429 -0.98428738 -0.15592356
vn -0.29288936 -0.88178068 -0.36970103
vn -0.17683025 -0.75685865 -0.62920266
vn -0.61847234 -0.34437564 -0.70632678
vn -0.38651055 0.8965258 -0.21645118
vn -0.19716005 0.72180831 -0.66341597
vn -0.80289769 -0.5957768 0.020133013
vn -0.2595481 0.45189378 -0.85347927
vn 0.8683055 -0.11251733 -0.48309988
vn 0.09608452 0.26156947 -0.96039009
vn 0.90253913 -0.035617717 -0.42913201
vn 0.92645735 -0.037505306 -0.37452659
vn 0.72671276 0.53784841 0.42732617
vn 0.36236769 0.44599575 0.81839937
vn 0.10699613 0.76473427 0.63540012
vn 0.7486344 0.49557346 0.44040138
vn 0.73903918 0.49363485 0.45841655
vn 0.39825565 0.43500227 0.8075676
vn 0.20433742 0.8129316 0.54533327
vn 0.90550625 0.05716287 -0.42046508
vn -0.37105772 0.21641918 -0.90303868
vn -0.11369354 -0.19977237 -0.97322387
vn -0.64612693 -0.40369514 0.64772695
vn 0.4455916 -0.8873384 0.11865462
vn -0.38376048 0.54918581 -0.74237657
vn -0.3779411 -0.44142374 -0.81382161
vn -0.16086741 -0.96707922 0.19717918
vn -0.49132025 -0.10234825 0.86494464
vn 0.39398709 -0.54440033 0.74054199
vn 0.43539956 -0.55735248 0.70695502
vn 0.44677004 -0.53676707 0.71573573
vn 0.17820543 -0.84092814 0.51096237
vn 0.50773567 -0.84950531 0.14333586
vn -0.47278363 -0.063915491 0.87885743
vn -0.21664768 -0.94835681 0.2316962
vn -0.71911275 -0.35802963 0.59555995
vn -0.29740608 -0.4608725 -0.83614969
vn -0.48587874 0.50382745 -0.71419859
vn -0.092856131 0.12610945 -0.98766088
vn 0.7444216 0.49668378 0.446253
vn 0.3546485 0.4529925 0.81793779
vn 0.16097079 0.75989652 0.62979805
vn 0.91735554 -0.019447656 -0.39759347
vn -0.41809335 0.17277208 -0.8918227
vn 0.44756809 -0.8865273 0.11726925
vn 0.43369281 -0.548338 0.71500772
vn 0.17282152 -0.89631319 0.40835693
vn -0.44990081 -0.094820164 0.88803059
vn -0.15273191 -0.96993941 0.18944773
vn -0.66549945 -0.39353096 0.63422692
vn -0.39710012 -0.43944934 -0.80572689
vn -0.43113932 0.54877907 -0.71621257
vn -0.077597044 -0.223838 -0.9715324
vn -0.13031454 0.10610055 -0.98577929
vn -0.070070699 -0.30718961 -0.94906509
vn -0.39167711 -0.46872929 0.79175872
vn -0.8606931 -0.48543692 -0.15348795
vn 0.10347199 -0.98613042 0.12977098
vn 0.17570904 -0.98417771 -0.022812722
vn 0.8258031 0.5514527 -0.11810616
vn 0.91961443 -0.099377327 -0.38004404
vn -0.88968629 0.44052252 0.11999232
vn 0.81276548 -0.20965655 0.54355901
vn -0.4485561 0.89336085 0.026526503
vn 0.91576636 -0.29068807 -0.27725887
vn 0.34958383 0.23308839 0.90744758
vn 0.3128913 0.66070127 0.682329
vn -0.70187849 -0.71229333 -0.0021693637
vn 0.3589181 0.67179972 -0.64796829
vn 0.97421527 -0.22103995 -0.045233265
vn 0.044322159 0.24281262 0.96906018
vn 0.11453757 0.25368524 0.96048164
vn -0.9305684 -0.30606896 -0.20090838
vn -0.94441676 -0.30073896 -0.1327894
vn 0.66511118 -0.63104719 -0.39925742
vn 0.64709461 0.36551851 -0.66907758
vn 0.17742045 -0.12140503 0.97661799
vn 0.094836116 -0.13381581 0.986458
vn 0.78006506 -0.62413871 0.044151828
vn 0.98777974 -0.1542511 -0.022313617
vn 0.61585236 -0.6496501 -0.44573602
vn 0.65059459 0.39097372 -0.65105021
vn 0.44640452 0.83753836 -0.31504381
vn 0.39263883 0.86779886 -0.30456513
vn -0.98597401 0.06581568 -0.15337405
vn -0.96982992 0.061500795 -0.23589733
vn 0.41737503 0.67543191 -0.60793912
vn 0.66974115 0.37842643 -0.63893688
vn 0.97446257 -0.18910347 -0.12108918
vn 0.079173453 0.24391158 0.96656024
vn 0.13640316 -0.12120407 0.98321092
vn 0.82901406 -0.55340958 -0.080458216
vn 0.68648803 -0.57358921 -0.44691125
vn 0.44267198 0.8426137 -0.30666521
vn -0.97908562 0.056677897 -0.19539502
vn -0.93980879 -0.29898173 -0.1654368
vn -0.91450143 0.38450444 0.12587041
vn 0.015873363 -0.41471562 0.90981263
vn 0.17522889 -0.54976362 -0.81673425
vn 0.7777161 0.62387693 -0.077040739
vn 0.89828396 -0.43889475 -0.02138048
vn -0.15271069 -0.4731105 0.8676669
vn 0.13345188 0.58685678 -0.7986173
vn -0.72312254 -0.66897309 0.17195566

# Mesh 'Icosphere.011' with 210 faces
g Icosphere.011
usemtl Material.001
f  1//1 2//1 3//1
f  4//2 5//2 6//2 7//2
f  8//3 9//3 10//3
f  11//4 12//4 13//4
f  14//5 15//5 16//5 17//5
f  18//6 4//6 7//6 19//6
f  8//7 10//7 20//7
f  11//8 13//8 21//8
f  22//9 14//9 17//9 23//9
f  24//10 18//10 19//10 25//10
f  9//11 8//11 26//11 27//11
f  28//12 13//12 29//12 30//12
f  5//13 31//13 32//13 6//13
f  33//14 34//14 35//14 36//14
f  34//15 33//15 37//15
f  34//16 38//16 39//16 35//16
f  40//17 33//17 36//17 41//17
f  33//18 42//18 37//18
f  43//19 44//19 45//19 46//19
f  13//20 12//20 47//20 29//20
f  8//21 20//21 48//21 26//21
f  49//22 50//22 51//22 52//22
f  20//23 53//23 54//23 48//23
f  12//24 2//24 55//24 47//24
f  1//25 3//25 56//25 57//25
f  31//26 24//26 25//26 32//26
f  58//27 34//27 37//27
f  58//28 38//28 34//28
f  59//29 60//29 61//29 62//29
f  38//30 63//30 64//30 39//30
f  63//31 10//31 65//31 64//31
f  66//32 22//32 23//32 67//32
f  68//33 69//33 40//33
f  68//34 70//34 69//34
f  21//35 28//35 30//35 71//35
f  37//36 42//36 72//36 73//36
f  21//37 13//37 28//37
f  53//38 74//38 75//38 54//38
f  20//39 74//39 53//39
f  20//40 10//40 74//40
f  76//41 77//41 78//41 79//41
f  80//42 66//42 67//42 81//42
f  15//43 40//43 41//43 16//43
f  60//44 80//44 81//44 61//44
f  15//45 68//45 40//45
f  15//46 14//46 68//46
f  14//47 49//47 68//47
f  50//48 21//48 71//48 51//48
f  69//49 70//49 82//49 83//49
f  50//50 11//50 21//50
f  42//51 69//51 83//51 72//51
f  2//52 1//52 57//52 55//52
f  70//53 68//53 84//53 82//53
f  10//54 59//54 62//54 65//54
f  10//55 9//55 59//55
f  9//56 85//56 59//56
f  60//57 66//57 80//57
f  86//58 43//58 46//58 87//58
f  88//59 22//59 66//59
f  89//60 14//60 22//60
f  89//61 3//61 14//61
f  3//62 49//62 14//62
f  3//63 50//63 49//63
f  90//64 76//64 79//64 91//64
f  92//65 93//65 94//65 95//65
f  2//66 12//66 11//66
f  68//67 49//67 52//67 84//67
f  74//68 58//68 96//68 75//68
f  88//69 89//69 22//69
f  58//70 37//70 73//70 96//70
f  88//71 85//71 97//71 98//71
f  89//72 88//72 98//72 99//72
f  85//73 9//73 27//73 97//73
f  3//74 89//74 99//74 56//74
f  23//75 17//75 16//75
f  23//76 16//76 67//76
f  100//77 101//77 102//77 103//77
f  35//78 104//78 36//78
f  105//79 106//79 107//79 108//79
f  39//80 81//80 35//80
f  67//81 104//81 81//81
f  67//82 16//82 104//82
f  109//83 110//83 111//83 112//83
f  113//84 105//84 108//84 114//84
f  62//85 61//85 39//85
f  61//86 81//86 39//86
f  65//87 62//87 64//87
f  110//88 115//88 116//88 111//88
f  97//89 117//89 98//89
f  57//90 118//90 55//90
f  57//91 56//91 99//91
f  52//92 51//92 82//92
f  52//93 82//93 84//93
f  106//94 113//94 114//94 107//94
f  119//95 30//95 72//95
f  83//96 119//96 72//96
f  120//97 121//97 122//97 123//97
f  72//98 30//98 124//98
f  125//99 126//99 127//99 128//99
f  124//100 96//100 73//100
f  124//101 75//101 96//101
f  121//102 100//102 103//102 122//102
f  71//103 30//103 119//103
f  129//104 130//104 131//104 132//104
f  115//105 109//105 112//105 116//105
f  82//106 51//106 71//106
f  29//107 48//107 54//107
f  29//108 47//108 48//108
f  47//109 26//109 48//109
f  55//110 118//110 47//110
f  133//111 134//111 135//111 136//111
f  98//112 117//112 99//112
f  137//113 138//113 139//113 140//113
f  141//114 142//114 143//114 144//114
f  145//115 146//115 147//115 148//115
f  117//116 97//116 27//116
f  149//117 142//117 64//117 62//117
f  142//118 141//118 39//118 64//118
f  109//119 115//119 81//119 104//119
f  100//120 121//120 41//120 36//120
f  121//121 120//121 16//121 41//121
f  115//122 110//122 35//122 81//122
f  110//123 109//123 104//123 35//123
f  101//124 100//124 36//124 104//124
f  120//125 101//125 104//125 16//125
f  141//126 149//126 62//126 39//126
f  145//127 150//127 118//127 57//127
f  133//128 138//128 27//128 26//128
f  125//129 151//129 71//129 119//129
f  152//130 130//130 54//130 75//130
f  146//131 145//131 57//131 99//131
f  134//132 133//132 26//132 47//132
f  130//133 129//133 29//133 54//133
f  126//134 125//134 119//134 83//134
f  113//135 106//135 124//135 73//135
f  105//136 113//136 73//136 72//136
f  106//137 105//137 72//137 124//137
f  153//138 154//138 124//138 30//138
f  154//139 152//139 75//139 124//139
f  155//140 126//140 83//140 82//140
f  129//141 153//141 30//141 29//141
f  151//142 155//142 82//142 71//142
f  150//143 134//143 47//143 118//143
f  137//144 146//144 99//144 117//144
f  138//145 137//145 117//145 27//145
f  116//146 112//146 111//146
f  102//147 122//147 103//147
f  123//148 122//148 102//148
f  156//149 144//149 143//149
f  148//150 140//150 157//150
f  131//151 158//151 159//151
f  108//152 107//152 114//152
f  160//153 131//153 159//153
f  161//154 128//154 127//154
f  132//155 131//155 160//155
f  161//156 162//156 128//156
f  157//157 136//157 135//157
f  140//158 148//158 147//158
f  157//159 139//159 136//159
f  157//160 140//160 139//160
f  154//161 153//161 160//161 159//161
f  101//162 120//162 123//162 102//162
f  152//163 154//163 159//163 158//163
f  149//164 141//164 144//164 156//164
f  126//165 155//165 161//165 127//165
f  150//166 145//166 148//166 157//166
f  153//167 129//167 132//167 160//167
f  138//168 133//168 136//168 139//168
f  155//169 151//169 162//169 161//169
f  151//170 125//170 128//170 162//170
f  134//171 150//171 157//171 135//171
f  130//172 152//172 158//172 131//172
f  142//173 149//173 156//173 143//173
f  146//174 137//174 140//174 147//174
f  4//175 18//175 85//175 88//175
f  92//176 44//176 63//176 38//176
f  163//177 164//177 40//177 69//177
f  164//178 165//178 33//178 40//178
f  76//179 90//179 2//179 11//179
f  77//180 76//180 11//180 50//180
f  44//181 43//181 10//181 63//181
f  18//182 24//182 59//182 85//182
f  165//183 166//183 42//183 33//183
f  166//184 163//184 69//184 42//184
f  86//185 93//185 58//185 74//185
f  93//186 92//186 38//186 58//186
f  43//187 86//187 74//187 10//187
f  24//188 31//188 60//188 59//188
f  31//189 5//189 66//189 60//189
f  5//190 4//190 88//190 66//190
f  167//191 77//191 50//191 3//191
f  90//192 167//192 3//192 2//192
f  19//193 7//193 32//193
f  19//194 32//194 25//194
f  45//195 95//195 94//195
f  168//196 169//196 170//196
f  170//197 169//197 171//197
f  87//198 45//198 94//198
f  46//199 45//199 87//199
f  32//200 7//200 6//200
f  172//201 91//201 78//201
f  91//202 79//202 78//202
f  166//203 165//203 170//203 171//203
f  44//204 92//204 95//204 45//204
f  77//205 167//205 172//205 78//205
f  163//206 166//206 171//206 169//206
f  164//207 163//207 169//207 168//207
f  167//208 90//208 91//208 172//208
f  93//209 86//209 87//209 94//209
f  165//210 164//210 168//210 170//210

